<svg xmlns="http://www.w3.org/2000/svg" xmlns:xlink="http://www.w3.org/1999/xlink" width="1328.416" height="3291" viewBox="0 0 1328.416 3291">
  <defs>
    <linearGradient id="linear-gradient" x1="0.5" x2="0.5" y2="1" gradientUnits="objectBoundingBox">
      <stop offset="0" stop-color="#f5f5f5"/>
      <stop offset="1" stop-color="#e6e6e6" stop-opacity="0"/>
    </linearGradient>
    <linearGradient id="linear-gradient-2" x1="0.5" x2="0.5" y2="1" gradientUnits="objectBoundingBox">
      <stop offset="0" stop-color="#fff"/>
      <stop offset="1" stop-color="#fff" stop-opacity="0"/>
    </linearGradient>
    <clipPath id="clip-path">
      <rect id="Rectángulo_402994" data-name="Rectángulo 402994" width="282.051" height="129" transform="translate(0)" fill="#5573c6" stroke="#707070" stroke-width="1"/>
    </clipPath>
    <clipPath id="clip-path-2">
      <rect id="Rectángulo_402995" data-name="Rectángulo 402995" width="282.051" height="129" transform="translate(0)" fill="#ffca00" stroke="#707070" stroke-width="1"/>
    </clipPath>
  </defs>
  <g id="Grupo_1103397" data-name="Grupo 1103397" transform="translate(4881 15719)">
    <rect id="Rectángulo_402996" data-name="Rectángulo 402996" width="1328" height="3291" transform="translate(-4881 -15719)" fill="none"/>
    <g id="Grupo_1103391" data-name="Grupo 1103391" transform="translate(-5016.584 -16267.614)">
      <rect id="Rectángulo_33858" data-name="Rectángulo 33858" width="1328" height="952" transform="translate(136 1500.614)" fill="url(#linear-gradient)"/>
      <rect id="Rectángulo_326955" data-name="Rectángulo 326955" width="1328" height="83" transform="translate(136 1500.614)" fill="url(#linear-gradient-2)"/>
    </g>
    <g id="Grupo_1103394" data-name="Grupo 1103394" transform="translate(-3552.635 -14383.996) rotate(90)" opacity="0.25" clip-path="url(#clip-path)">
      <g id="Grupo_1103393" data-name="Grupo 1103393" transform="translate(6.559 -148.677)">
        <path id="Sustracción_48" data-name="Sustracción 48" d="M136.653,0a137.662,137.662,0,0,0-27.54,2.776A135.9,135.9,0,0,0,60.249,23.338a137.051,137.051,0,0,0-49.51,60.123,135.968,135.968,0,0,0-7.963,25.651,137.987,137.987,0,0,0,0,55.081,135.905,135.905,0,0,0,20.562,48.863,137.051,137.051,0,0,0,60.123,49.51,135.969,135.969,0,0,0,25.651,7.963,137.986,137.986,0,0,0,55.081,0,135.906,135.906,0,0,0,48.863-20.562,137.052,137.052,0,0,0,49.51-60.123,135.971,135.971,0,0,0,7.963-25.651,137.986,137.986,0,0,0,0-55.081,135.9,135.9,0,0,0-20.562-48.863,137.051,137.051,0,0,0-60.123-49.51,135.97,135.97,0,0,0-25.651-7.963A137.662,137.662,0,0,0,136.653,0Zm-.509,208.453A71.817,71.817,0,0,1,121.776,207a70.9,70.9,0,0,1-25.492-10.727,71.5,71.5,0,0,1-25.829-31.366A70.93,70.93,0,0,1,66.3,151.529a71.987,71.987,0,0,1,0-28.735A70.9,70.9,0,0,1,77.028,97.3a71.5,71.5,0,0,1,31.366-25.829,70.931,70.931,0,0,1,13.382-4.154,71.987,71.987,0,0,1,28.735,0A70.9,70.9,0,0,1,176,78.046a71.5,71.5,0,0,1,25.829,31.366,70.929,70.929,0,0,1,4.154,13.382,71.986,71.986,0,0,1,0,28.735,70.9,70.9,0,0,1-10.727,25.492,71.5,71.5,0,0,1-31.366,25.829A70.928,70.928,0,0,1,150.511,207,71.816,71.816,0,0,1,136.144,208.453Z" fill="#7f7aff"/>
      </g>
    </g>
    <g id="Grupo_1103396" data-name="Grupo 1103396" transform="translate(-4880.635 -13778.195) rotate(-90)" opacity="0.25" clip-path="url(#clip-path-2)">
      <g id="Grupo_1103395" data-name="Grupo 1103395" transform="translate(6.559 -148.677)">
        <path id="Sustracción_49" data-name="Sustracción 49" d="M136.653,0a137.662,137.662,0,0,0-27.54,2.776A135.9,135.9,0,0,0,60.249,23.338a137.051,137.051,0,0,0-49.51,60.123,135.968,135.968,0,0,0-7.963,25.651,137.987,137.987,0,0,0,0,55.081,135.905,135.905,0,0,0,20.562,48.863,137.051,137.051,0,0,0,60.123,49.51,135.969,135.969,0,0,0,25.651,7.963,137.986,137.986,0,0,0,55.081,0,135.906,135.906,0,0,0,48.863-20.562,137.052,137.052,0,0,0,49.51-60.123,135.971,135.971,0,0,0,7.963-25.651,137.986,137.986,0,0,0,0-55.081,135.9,135.9,0,0,0-20.562-48.863,137.051,137.051,0,0,0-60.123-49.51,135.97,135.97,0,0,0-25.651-7.963A137.662,137.662,0,0,0,136.653,0Zm-.509,208.453A71.817,71.817,0,0,1,121.776,207a70.9,70.9,0,0,1-25.492-10.727,71.5,71.5,0,0,1-25.829-31.366A70.93,70.93,0,0,1,66.3,151.529a71.987,71.987,0,0,1,0-28.735A70.9,70.9,0,0,1,77.028,97.3a71.5,71.5,0,0,1,31.366-25.829,70.931,70.931,0,0,1,13.382-4.154,71.987,71.987,0,0,1,28.735,0A70.9,70.9,0,0,1,176,78.046a71.5,71.5,0,0,1,25.829,31.366,70.929,70.929,0,0,1,4.154,13.382,71.986,71.986,0,0,1,0,28.735,70.9,70.9,0,0,1-10.727,25.492,71.5,71.5,0,0,1-31.366,25.829A70.928,70.928,0,0,1,150.511,207,71.816,71.816,0,0,1,136.144,208.453Z" fill="#f0dcc0"/>
      </g>
    </g>
  </g>
</svg>
