<svg xmlns="http://www.w3.org/2000/svg" xmlns:xlink="http://www.w3.org/1999/xlink" width="1240" height="525.136" viewBox="0 0 1240 525.136">
  <defs>
    <clipPath id="clip-path">
      <path id="Rectangle_652" data-name="Rectangle 652" d="M1220.473,524.318H19.528A19.474,19.474,0,0,1,0,504.9V19.419A19.474,19.474,0,0,1,19.528,0H1220.473A19.474,19.474,0,0,1,1240,19.419V504.9A19.474,19.474,0,0,1,1220.473,524.318Z" transform="translate(0 0)" fill="none" opacity="0.238"/>
    </clipPath>
    <clipPath id="clip-path-2">
      <rect id="Rectángulo_34915" data-name="Rectángulo 34915" width="129" height="64.893" fill="#cccaff" stroke="#707070" stroke-width="1"/>
    </clipPath>
    <clipPath id="clip-path-3">
      <rect id="Rectángulo_361780" data-name="Rectángulo 361780" width="129" height="64.893" fill="#4adbd1" stroke="#707070" stroke-width="1"/>
    </clipPath>
    <linearGradient id="linear-gradient" x1="7.465" y1="0.5" x2="6.465" y2="0.5" gradientUnits="objectBoundingBox">
      <stop offset="0" stop-color="#09005d"/>
      <stop offset="1" stop-color="#1a0f91"/>
    </linearGradient>
    <linearGradient id="linear-gradient-2" x1="2.963" y1="0.5" x2="1.963" y2="0.5" xlink:href="#linear-gradient"/>
    <linearGradient id="linear-gradient-3" x1="2.887" y1="0.5" x2="1.887" y2="0.5" xlink:href="#linear-gradient"/>
    <linearGradient id="linear-gradient-4" x1="1.538" y1="0.5" x2="0.538" y2="0.5" xlink:href="#linear-gradient"/>
    <linearGradient id="linear-gradient-5" x1="0.365" y1="0.5" x2="-0.635" y2="0.5" xlink:href="#linear-gradient"/>
    <linearGradient id="linear-gradient-6" x1="1.157" y1="0.5" x2="0.157" y2="0.5" xlink:href="#linear-gradient"/>
    <linearGradient id="linear-gradient-7" x1="3.783" y1="0.5" x2="2.783" y2="0.5" xlink:href="#linear-gradient"/>
    <linearGradient id="linear-gradient-8" x1="11.081" y1="0.5" x2="10.081" y2="0.5" xlink:href="#linear-gradient"/>
    <linearGradient id="linear-gradient-9" x1="89.925" y1="194.877" x2="88.925" y2="194.877" xlink:href="#linear-gradient"/>
    <linearGradient id="linear-gradient-10" x1="97.951" y1="204.32" x2="96.951" y2="204.32" xlink:href="#linear-gradient"/>
    <linearGradient id="linear-gradient-11" x1="95.508" y1="222.19" x2="94.508" y2="222.19" xlink:href="#linear-gradient"/>
    <linearGradient id="linear-gradient-12" x1="68.143" y1="0.5" x2="67.147" y2="0.5" xlink:href="#linear-gradient"/>
    <linearGradient id="linear-gradient-13" x1="29.251" y1="0.5" x2="28.255" y2="0.5" xlink:href="#linear-gradient"/>
    <linearGradient id="linear-gradient-14" x1="13.592" y1="0.5" x2="12.597" y2="0.5" xlink:href="#linear-gradient"/>
    <linearGradient id="linear-gradient-15" x1="-20.368" y1="0.5" x2="-21.364" y2="0.5" xlink:href="#linear-gradient"/>
    <linearGradient id="linear-gradient-16" x1="40.076" y1="0.5" x2="39.076" y2="0.5" xlink:href="#linear-gradient"/>
    <linearGradient id="linear-gradient-17" x1="28.882" y1="0.5" x2="27.882" y2="0.5" xlink:href="#linear-gradient"/>
    <linearGradient id="linear-gradient-18" x1="16.648" y1="0.499" x2="15.648" y2="0.499" xlink:href="#linear-gradient"/>
    <linearGradient id="linear-gradient-19" x1="-3.698" y1="0.499" x2="-4.698" y2="0.499" xlink:href="#linear-gradient"/>
  </defs>
  <g id="fnd-1" transform="translate(-180 -3267.733)">
    <path id="Trazado_730055" data-name="Trazado 730055" d="M23,0H1217a23.1,23.1,0,0,1,23,23.2V500.276a23.1,23.1,0,0,1-23,23.2H23a23.1,23.1,0,0,1-23-23.2V23.2A23.1,23.1,0,0,1,23,0Z" transform="translate(180 3267.733)" fill="#f6f6f6"/>
    <g id="Grupo_80238" data-name="Grupo 80238" transform="translate(180 3268.551)" clip-path="url(#clip-path)">
      <g id="Grupo_80237" data-name="Grupo 80237" transform="translate(16 0)" clip-path="url(#clip-path-2)">
        <g id="Grupo_80236" data-name="Grupo 80236" transform="translate(3 -74.792)">
          <path id="Sustracción_11" data-name="Sustracción 11" d="M62.5,0A57.455,57.455,0,0,0,49.9,1.4,58.134,58.134,0,0,0,38.172,5.4,60.958,60.958,0,0,0,27.556,11.74a64.681,64.681,0,0,0-9.25,8.394,68.266,68.266,0,0,0-7.632,10.174A71.166,71.166,0,0,0,4.912,41.985a73.491,73.491,0,0,0-3.642,12.9,76.215,76.215,0,0,0,0,27.708A73.491,73.491,0,0,0,4.912,95.5a71.165,71.165,0,0,0,5.762,11.677,68.265,68.265,0,0,0,7.632,10.174,64.68,64.68,0,0,0,9.25,8.394,60.957,60.957,0,0,0,10.617,6.338A58.135,58.135,0,0,0,49.9,136.089a57.5,57.5,0,0,0,25.192,0,58.135,58.135,0,0,0,11.732-4.006,60.957,60.957,0,0,0,10.617-6.338,64.681,64.681,0,0,0,9.25-8.394,68.265,68.265,0,0,0,7.632-10.174A71.168,71.168,0,0,0,120.088,95.5a73.492,73.492,0,0,0,3.642-12.9,76.215,76.215,0,0,0,0-27.708,73.492,73.492,0,0,0-3.642-12.9,71.168,71.168,0,0,0-5.762-11.677,68.266,68.266,0,0,0-7.632-10.174,64.681,64.681,0,0,0-9.25-8.394A60.957,60.957,0,0,0,86.828,5.4,58.134,58.134,0,0,0,75.1,1.4,57.455,57.455,0,0,0,62.5,0Zm-.233,104.862a29.973,29.973,0,0,1-6.571-.729,30.326,30.326,0,0,1-6.121-2.09,31.8,31.8,0,0,1-5.539-3.307,33.745,33.745,0,0,1-4.826-4.379A35.613,35.613,0,0,1,35.23,89.05a37.127,37.127,0,0,1-3.006-6.092,38.338,38.338,0,0,1-1.9-6.732,39.761,39.761,0,0,1,0-14.455,38.339,38.339,0,0,1,1.9-6.732,37.128,37.128,0,0,1,3.006-6.092,35.611,35.611,0,0,1,3.981-5.308,33.743,33.743,0,0,1,4.826-4.379,31.8,31.8,0,0,1,5.539-3.307,30.327,30.327,0,0,1,6.121-2.09,30,30,0,0,1,13.142,0,30.326,30.326,0,0,1,6.12,2.09A31.8,31.8,0,0,1,80.5,39.261a33.744,33.744,0,0,1,4.826,4.379A35.613,35.613,0,0,1,89.3,48.948a37.128,37.128,0,0,1,3.006,6.092,38.337,38.337,0,0,1,1.9,6.732,39.76,39.76,0,0,1,0,14.455,38.336,38.336,0,0,1-1.9,6.732A37.129,37.129,0,0,1,89.3,89.05a35.614,35.614,0,0,1-3.982,5.308A33.746,33.746,0,0,1,80.5,98.737a31.8,31.8,0,0,1-5.539,3.307,30.325,30.325,0,0,1-6.12,2.09A29.973,29.973,0,0,1,62.267,104.862Z" fill="#cccaff"/>
        </g>
      </g>
      <g id="Grupo_1025926" data-name="Grupo 1025926" transform="translate(1201 524.319) rotate(180)" clip-path="url(#clip-path-3)">
        <g id="Grupo_1025925" data-name="Grupo 1025925" transform="translate(3 -74.792)">
          <path id="Sustracción_12" data-name="Sustracción 12" d="M62.5,0A57.455,57.455,0,0,0,49.9,1.4,58.134,58.134,0,0,0,38.172,5.4,60.958,60.958,0,0,0,27.556,11.74a64.681,64.681,0,0,0-9.25,8.394,68.266,68.266,0,0,0-7.632,10.174A71.166,71.166,0,0,0,4.912,41.985a73.491,73.491,0,0,0-3.642,12.9,76.215,76.215,0,0,0,0,27.708A73.491,73.491,0,0,0,4.912,95.5a71.165,71.165,0,0,0,5.762,11.677,68.265,68.265,0,0,0,7.632,10.174,64.68,64.68,0,0,0,9.25,8.394,60.957,60.957,0,0,0,10.617,6.338A58.135,58.135,0,0,0,49.9,136.089a57.5,57.5,0,0,0,25.192,0,58.135,58.135,0,0,0,11.732-4.006,60.957,60.957,0,0,0,10.617-6.338,64.681,64.681,0,0,0,9.25-8.394,68.265,68.265,0,0,0,7.632-10.174A71.168,71.168,0,0,0,120.088,95.5a73.492,73.492,0,0,0,3.642-12.9,76.215,76.215,0,0,0,0-27.708,73.492,73.492,0,0,0-3.642-12.9,71.168,71.168,0,0,0-5.762-11.677,68.266,68.266,0,0,0-7.632-10.174,64.681,64.681,0,0,0-9.25-8.394A60.957,60.957,0,0,0,86.828,5.4,58.134,58.134,0,0,0,75.1,1.4,57.455,57.455,0,0,0,62.5,0Zm-.233,104.862a29.973,29.973,0,0,1-6.571-.729,30.326,30.326,0,0,1-6.121-2.09,31.8,31.8,0,0,1-5.539-3.307,33.745,33.745,0,0,1-4.826-4.379A35.613,35.613,0,0,1,35.23,89.05a37.127,37.127,0,0,1-3.006-6.092,38.338,38.338,0,0,1-1.9-6.732,39.761,39.761,0,0,1,0-14.455,38.339,38.339,0,0,1,1.9-6.732,37.128,37.128,0,0,1,3.006-6.092,35.611,35.611,0,0,1,3.981-5.308,33.743,33.743,0,0,1,4.826-4.379,31.8,31.8,0,0,1,5.539-3.307,30.327,30.327,0,0,1,6.121-2.09,30,30,0,0,1,13.142,0,30.326,30.326,0,0,1,6.12,2.09A31.8,31.8,0,0,1,80.5,39.261a33.744,33.744,0,0,1,4.826,4.379A35.613,35.613,0,0,1,89.3,48.948a37.128,37.128,0,0,1,3.006,6.092,38.337,38.337,0,0,1,1.9,6.732,39.76,39.76,0,0,1,0,14.455,38.336,38.336,0,0,1-1.9,6.732A37.129,37.129,0,0,1,89.3,89.05a35.614,35.614,0,0,1-3.982,5.308A33.746,33.746,0,0,1,80.5,98.737a31.8,31.8,0,0,1-5.539,3.307,30.325,30.325,0,0,1-6.12,2.09A29.973,29.973,0,0,1,62.267,104.862Z" fill="#ef5e9c"/>
        </g>
      </g>
      <path id="Trazado_151751" data-name="Trazado 151751" d="M1386.347,651.986l-96.738-325.674,35.708-152.4L1114.807,56.657c-2.951,3.434-5.7,7.108-8.894,10.263-23.941,23.628-46.531,49.207-72.275,70.275-51.043,41.765-106.25,50.8-163.039,27.417q-29.646-12.2-58.427-26.4c-35.507-17.568-72.693-27.371-113.7-23.224-25.665,2.595-48.59,11.89-68.96,30.3-30.488,27.55-52.308,62.54-76.744,95.34-12.948,17.381-26.151,34.7-40.534,50.759-29.579,33.034-64.608,49.011-106.8,46.711-45.389-2.475-82.833-17.206-108.809-56.7-21.677-32.956-43.66-65.83-67.765-96.712-39.018-49.987-91.842-65.233-154.184-49.469-22.318,5.642-44.008,15.291-65.985,23.11l121.6,390.736Z" transform="matrix(0.891, -0.454, 0.454, 0.891, 162.34, 403.327)" fill="none" stroke="#fff" stroke-width="1" opacity="0.81"/>
      <g id="Grupo_1020679" data-name="Grupo 1020679" transform="translate(-16.569 -42.755)" opacity="0.1">
        <path id="Trazado_117938" data-name="Trazado 117938" d="M1415.807,118.634a.372.372,0,0,0,.115,0,.132.132,0,0,0,.089-.084.324.324,0,0,0,0-.084.26.26,0,0,0,0-.168c.076-1.136-.42-6.341-3.617-31.983-2.114-16.917-5.094-40.456-8.991-69.984-6.546-50.261-13.308-101.111-13.372-101.63a.314.314,0,0,0-.191-.238.3.3,0,0,0-.306,0L1272.218-1.723a.285.285,0,0,0-.128.224.367.367,0,0,0,.1.238L1415.03,118.115l-231.92,26.063v.589l231.538-26.007c-2.2,1.641-8.38,6.916-26.591,22.935-15.282,13.41-36.932,32.614-64.453,57.121-50.533,44.959-109.841,98-140.685,125.6l.42.435C1325.858,197.33,1412.636,120.346,1415.807,118.634Zm-26.273-203.4c8.915,67.333,25.47,192.866,25.954,202.447L1272.957-1.484Z" transform="translate(-1182.919 209.43)" fill="url(#linear-gradient)"/>
        <path id="Trazado_117939" data-name="Trazado 117939" d="M1028.975,214.878a.239.239,0,0,0,.14-.224l12.149-232.508,186.4,74.936a.36.36,0,0,0,.242,0,.276.276,0,0,0,.166-.154l47.693-106.61a.307.307,0,0,0,0-.239.263.263,0,0,0-.167-.153l-133.4-54.091-36.614-69.7-.56.267,36.665,69.8a.263.263,0,0,0,.153.14l133.21,54.077L1227.63,56.422,1041.1-18.57a.34.34,0,0,0-.344,0L845.512,153.676a.3.3,0,0,0-.084.285.267.267,0,0,0,.2.206l183.068,60.754h.115a.26.26,0,0,0,.166-.042Zm11.653-232.466-12.111,231.807-182.2-60.445Z" transform="translate(-612.879 173.87)" fill="url(#linear-gradient-2)"/>
        <path id="Trazado_117940" data-name="Trazado 117940" d="M1036.733,275.671h0L1333.322,189.2a.266.266,0,0,0,.176-.125.319.319,0,0,0,.041-.226l-40.8-198.239a.3.3,0,0,0-.2-.224.339.339,0,0,0-.306,0L1093.239,148.23a.192.192,0,0,0-.089.112l-56.557,126.4L910.617,87.588a.318.318,0,0,0-.306-.14.314.314,0,0,0-.255.224L850.826,312.844l.611.14,59.078-224.5L1036.2,275.236,930.726,312.648l.217.547ZM1292.226-8.74l40.752,197.5-295.735,86.2,56.506-126.249Z" transform="translate(-677.513 240.014)" fill="url(#linear-gradient-3)"/>
        <path id="Trazado_117941" data-name="Trazado 117941" d="M782.475,81.287,954.463,52.979a.315.315,0,0,0,.229-.154.29.29,0,0,0,0-.266L870.7-109.63a.322.322,0,0,0-.191-.154.36.36,0,0,0-.242,0L622.6,30.745a.331.331,0,0,0-.153.295.325.325,0,0,0,.216.253L782.322,81.273h.153Zm87.872-190.355L953.941,52.46,782.449,80.7,623.515,30.927Z" transform="translate(-7.847 199.673)" fill="url(#linear-gradient-4)"/>
        <path id="Trazado_117942" data-name="Trazado 117942" d="M597.221,279.208l273.143-37.37v-.154l.242.112a.316.316,0,0,0,.331,0,.294.294,0,0,0,.115-.309L769.35-158.834a.327.327,0,0,0-.369-.224L433.575-90.014a.344.344,0,0,0-.229.168l-88.1,190.383.573.238L433.855-89.467l334.934-68.946,101.474,399.4L517.856,72.258a.305.305,0,0,0-.344,0,.267.267,0,0,0-.089.323l79.467,206.4a.316.316,0,0,0,.293.2Zm272.4-37.875L597.387,278.577l-79.1-205.449Z" transform="translate(428.836 179.833)" fill="url(#linear-gradient-5)"/>
        <path id="Trazado_117943" data-name="Trazado 117943" d="M822.041,256.621l-.42-.435L929.869,162.06,561,132.35,680.8,255.793l-.458.407L559.99,132.2a.3.3,0,0,1,0-.337.335.335,0,0,1,.305-.168l370.351,29.893a.305.305,0,0,1,.28.2.282.282,0,0,1-.089.309Z" transform="translate(95.539 296.939)" fill="url(#linear-gradient-6)"/>
        <path id="Trazado_117944" data-name="Trazado 117944" d="M1035.913,267.719l-.573-.238,54.888-123.654L850.807,103.469l.115-.589,239.752,40.428a.339.339,0,0,1,.216.14.321.321,0,0,1,0,.267Z" transform="translate(-434.865 285.335)" fill="url(#linear-gradient-7)"/>
        <path id="Trazado_117945" data-name="Trazado 117945" d="M1103.631,231.435,1011.62,193.9l.255-.547,92,37.538Z" transform="translate(-652.617 321.774)" fill="url(#linear-gradient-8)"/>
        <g id="Grupo_54547" data-name="Grupo 54547" transform="translate(497.753 385.073)">
          <ellipse id="Elipse_4152" data-name="Elipse 4152" cx="23.827" cy="22.585" rx="23.827" ry="22.585" transform="translate(0 0)" opacity="0.51" fill="url(#linear-gradient-9)"/>
        </g>
        <g id="Grupo_54548" data-name="Grupo 54548" transform="translate(81.39 417.168)">
          <ellipse id="Elipse_4153" data-name="Elipse 4153" cx="23.827" cy="22.585" rx="23.827" ry="22.585" transform="translate(0 0)" opacity="0.31" fill="url(#linear-gradient-10)"/>
        </g>
        <g id="Grupo_54549" data-name="Grupo 54549" transform="translate(1013.246 439.753)">
          <ellipse id="Elipse_4154" data-name="Elipse 4154" cx="19.434" cy="18.418" rx="19.434" ry="18.418" opacity="0.55" fill="url(#linear-gradient-11)"/>
        </g>
        <path id="Trazado_117946" data-name="Trazado 117946" d="M1085.5,202.624a7.2,7.2,0,1,1,7.641-7.182A7.382,7.382,0,0,1,1085.5,202.624Z" transform="translate(-726.316 319.724)" fill="url(#linear-gradient-12)"/>
        <path id="Trazado_117947" data-name="Trazado 117947" d="M853.211,141.194a7.2,7.2,0,1,1,0-14.364,7.192,7.192,0,1,1,0,14.364Z" transform="translate(-198.065 294.982)" fill="url(#linear-gradient-13)"/>
        <path id="Trazado_117948" data-name="Trazado 117948" d="M759.577,35.284A7.383,7.383,0,0,1,752,28.1a7.622,7.622,0,0,1,15.219,0A7.415,7.415,0,0,1,759.577,35.284Z" transform="translate(14.668 252.325)" fill="url(#linear-gradient-14)"/>
        <path id="Trazado_117949" data-name="Trazado 117949" d="M556.648,162.374a7.2,7.2,0,1,1,7.641-7.182A7.39,7.39,0,0,1,556.648,162.374Z" transform="translate(476.032 303.512)" fill="url(#linear-gradient-15)"/>
        <path id="Trazado_117950" data-name="Trazado 117950" d="M1186.391,79.8c-9,0-16.3-6.916-16.3-15.43s7.3-15.43,16.3-15.43,16.3,6.916,16.3,15.43S1195.395,79.8,1186.391,79.8Z" transform="translate(-953.249 263.61)" fill="url(#linear-gradient-16)"/>
        <ellipse id="Elipse_4155" data-name="Elipse 4155" cx="16.301" cy="15.444" rx="16.301" ry="15.444" transform="translate(399.31 373.136)" fill="url(#linear-gradient-17)"/>
        <path id="Trazado_117951" data-name="Trazado 117951" d="M886.5,10.331c-9,0-16.3-6.916-16.3-15.43s7.3-15.43,16.3-15.43,16.3,6.916,16.3,15.43S895.416,10.331,886.5,10.331Z" transform="translate(-271.445 235.63)" fill="url(#linear-gradient-18)"/>
        <path id="Trazado_117952" data-name="Trazado 117952" d="M626.074,26.431c-9,0-16.314-6.93-16.314-15.43s7.31-15.43,16.314-15.43,16.3,6.916,16.3,15.43S635.078,26.431,626.074,26.431Z" transform="translate(320.657 242.115)" fill="url(#linear-gradient-19)"/>
      </g>
    </g>
  </g>
</svg>
