<svg id="img-16" xmlns="http://www.w3.org/2000/svg" xmlns:xlink="http://www.w3.org/1999/xlink" width="100.592" height="134.135" viewBox="0 0 100.592 134.135">
  <defs>
    <clipPath id="clip-path">
      <rect id="Rectángulo_402670" data-name="Rectángulo 402670" width="100.592" height="134.135" fill="none"/>
    </clipPath>
  </defs>
  <g id="Grupo_1102618" data-name="Grupo 1102618" clip-path="url(#clip-path)">
    <path id="Trazado_875371" data-name="Trazado 875371" d="M132.058,284.428c-.054-.324-.354-.359-.575-.462a5.81,5.81,0,0,1-3.517-5.892q.435-16.294.913-32.586a1.647,1.647,0,0,0-1.087-1.86,6.825,6.825,0,0,1-4.161-6.435c-.04-6.633-.1-13.269.017-19.9a13.569,13.569,0,0,1,13.4-13.492,66.234,66.234,0,0,1,10.719.182,13.471,13.471,0,0,1,11.525,12.809c.112,6.806.08,13.616.024,20.424a6.835,6.835,0,0,1-4.333,6.455,1.3,1.3,0,0,0-.887,1.467c.31,10.731.537,21.465.917,32.193.127,3.575-1.324,5.874-4.619,7.1h-2.62c-.166-.384-.577-.342-.875-.476a5.728,5.728,0,0,1-3.558-4.793c-.395-3.2-.7-6.407-1.124-9.6a17.029,17.029,0,0,0-.783-4.47,18.807,18.807,0,0,0-.47,2.686c-.454,3.849-.881,7.7-1.36,11.547-.331,2.658-2.1,4.128-4.4,5.108Zm.228-12.093c-.433,2.058-.145,4.143-.226,6.214a1.7,1.7,0,0,0,1.729,1.884,1.8,1.8,0,0,0,1.913-1.744c.209-1.492.332-2.995.492-4.494.221-1.944.436-3.889.666-5.832.49-4.144.992-8.286,1.481-12.43.388-3.281.724-6.568,1.163-9.842.206-1.537.995-2.217,2.144-2.127,1.131.089,1.794.97,1.944,2.391q.644,6.095,1.357,12.183c.6,5.138,1.221,10.272,1.833,15.408.171,1.632.283,3.273.533,4.893a1.753,1.753,0,0,0,1.93,1.582,1.716,1.716,0,0,0,1.694-1.925c-.042-1.26-.048-2.521-.07-3.781.165-2.178-.161-4.341-.213-6.512-.168-7-.365-13.99-.55-20.985a42.682,42.682,0,0,0-.219-7.356q-.022-1.43-.043-2.86a44.464,44.464,0,0,0-.223-7.609c0-1.088-.016-2.176-.009-3.264.01-1.461.809-2.424,1.991-2.42s1.914.918,1.948,2.442q.14,6.2.3,12.4c.008.323-.13.7.259,1.008a2.114,2.114,0,0,0,1.026-1.671,1.252,1.252,0,0,0,.236-.982q-.01-8.59-.035-17.18-.018-1.822-.036-3.645c-1.017-4.8-3.7-7.453-8.56-8.19a40.925,40.925,0,0,0-9.787-.11c-5.95.536-9.644,4.949-9.293,10.635l0,.791q0,.247,0,.493c-.013,5.757-.041,11.513-.024,17.27a2.832,2.832,0,0,0,1.454,2.642c.03-.351.059-.557.064-.764q.143-6.407.282-12.814c.031-1.4.8-2.312,1.957-2.323s1.962.891,1.969,2.279c.008,1.657-.007,3.314-.012,4.971a42.459,42.459,0,0,0-.22,7.355q-.022,1.431-.043,2.862a42.191,42.191,0,0,0-.219,7.354c-.177,4.273-.367,8.546-.3,12.826a42.546,42.546,0,0,0-.223,7.348q-.031,1.816-.061,3.632" transform="translate(-91.192 -150.293)"/>
    <path id="Trazado_875372" data-name="Trazado 875372" d="M321.839,174.444c-1.644,1.55-3.281,3.107-4.935,4.647-1.306,1.216-2.4,1.344-3.314.424-.941-.944-.808-2.007.408-3.291.085-.09.154-.2.235-.3-.248-.4-.635-.219-.943-.22-3.445-.015-6.89-.01-10.335-.01-.305,0-.611.013-.915,0a2.054,2.054,0,0,1-2.211-2.073,2.02,2.02,0,0,1,2.249-2.025c3.619-.03,7.239-.011,10.858-.012H314.2c.018-.5-.319-.608-.506-.817a2,2,0,0,1-.159-2.921,1.959,1.959,0,0,1,2.917-.039c1.828,1.656,3.6,3.376,5.392,5.069Z" transform="translate(-221.246 -123.358)"/>
    <path id="Trazado_875373" data-name="Trazado 875373" d="M0,172.824c1.671-1.588,3.33-3.189,5.015-4.761,1.268-1.182,2.421-1.26,3.31-.278.855.945.7,1.982-.477,3.2-.111.115-.221.231-.523.547h8.55c1.222,0,2.444-.013,3.665,0,1.581.022,2.481.793,2.467,2.079s-.91,2.02-2.52,2.027c-3.709.014-7.418,0-11.127.007-.217,0-.434.018-.664.028-.111.521.378.639.595.918a2.023,2.023,0,0,1-.029,2.838,1.973,1.973,0,0,1-2.83.043C3.592,177.815,1.808,176.093,0,174.4v-1.572" transform="translate(0 -123.31)"/>
    <path id="Trazado_875374" data-name="Trazado 875374" d="M174.487,0c1.581,1.662,3.176,3.312,4.739,4.992,1.128,1.212,1.217,2.328.324,3.221q-1.42,1.42-3.282-.427c-.092-.091-.19-.175-.3-.273-.425.223-.22.617-.221.917-.017,3.487-.011,6.974-.011,10.46,0,.305.014.611-.006.915a2.057,2.057,0,1,1-4.1-.087c-.024-3.617-.009-7.235-.009-10.852V7.571c-.5.008-.621.4-.868.611a1.992,1.992,0,0,1-2.919.04,1.943,1.943,0,0,1,0-2.822c1.658-1.829,3.377-3.6,5.07-5.4Z" transform="translate(-123.405)"/>
    <path id="Trazado_875375" data-name="Trazado 875375" d="M167.108,141.556a8.776,8.776,0,1,1,8.854-8.757,8.786,8.786,0,0,1-8.854,8.757m-4.64-8.764a4.716,4.716,0,1,0,4.65-4.8,4.75,4.75,0,0,0-4.65,4.8" transform="translate(-116.887 -91.503)"/>
    <path id="Trazado_875376" data-name="Trazado 875376" d="M30.753,248.295q4.705-2.671,9.41-5.342c.416-.236.816-.5,1.245-.716a2.023,2.023,0,1,1,2,3.515c-1.138.722-2.327,1.364-3.494,2.041l-7.361,4.267c.555.159.961.241,1.341.389a1.912,1.912,0,0,1,1.348,2.249,1.752,1.752,0,0,1-2,1.647,40.618,40.618,0,0,1-7.112-1.621c-1.175-.381-1.408-1.464-1.072-2.6.565-1.919,1.141-3.834,1.75-5.739a2.026,2.026,0,0,1,2.575-1.587c1.151.328,1.623,1.286,1.33,2.7-.044.213-.079.427-.118.642-.023.093-.046.185-.07.278l.23-.116" transform="translate(-18.386 -178.552)"/>
    <path id="Trazado_875377" data-name="Trazado 875377" d="M298.351,248.115a9.041,9.041,0,0,1-.246-1.148,1.871,1.871,0,0,1,1.338-2.129,1.762,1.762,0,0,1,2.4.983c.81,2.245,1.514,4.537,2.1,6.851.309,1.223-.438,2.023-1.865,2.362q-2.73.649-5.47,1.251c-1.47.326-2.558-.19-2.857-1.324-.332-1.261.313-2.171,1.854-2.617.208-.061.412-.136.784-.26-.434-.273-.763-.5-1.107-.694q-4.636-2.677-9.274-5.348c-1.459-.843-1.889-1.954-1.211-3.085.665-1.111,1.746-1.283,3.178-.464,3.059,1.751,6.108,3.521,9.165,5.276.334.192.7.333,1.045.5a2.074,2.074,0,0,0,.145.175c.143-.1.1-.212.018-.327" transform="translate(-209.925 -178.56)"/>
    <path id="Trazado_875378" data-name="Trazado 875378" d="M94.933,30.649q2.733,4.824,5.464,9.648a11.772,11.772,0,0,1,.621,1.147,2.029,2.029,0,0,1-.819,2.605,2.05,2.05,0,0,1-2.664-.626,14.425,14.425,0,0,1-.8-1.345c-1.818-3.169-3.634-6.339-5.478-9.554-.393.376-.34.864-.508,1.259a1.929,1.929,0,0,1-2.3,1.276A1.736,1.736,0,0,1,86.873,33c.425-2.351.953-4.689,1.579-6.994.307-1.13,1.345-1.475,2.7-1.082,1.879.545,3.749,1.128,5.612,1.727,1.378.443,1.944,1.342,1.662,2.529-.272,1.142-1.252,1.657-2.673,1.4-.213-.039-.422-.1-.633-.15l-.31-.03.123.247" transform="translate(-64.08 -18.279)"/>
    <path id="Trazado_875379" data-name="Trazado 875379" d="M30.619,94.827c-.169.516.064.87.113,1.245A1.894,1.894,0,0,1,29.4,98.329a1.783,1.783,0,0,1-2.422-.972c-.8-2.249-1.507-4.541-2.1-6.854-.3-1.159.427-1.973,1.778-2.3,1.86-.454,3.729-.873,5.6-1.282,1.475-.323,2.541.2,2.834,1.355.322,1.262-.321,2.146-1.881,2.6-.208.06-.409.143-.784.275,3.379,1.953,6.635,3.837,9.892,5.718,1.911,1.1,2.451,2.114,1.768,3.323-.7,1.23-1.867,1.292-3.737.209q-4.3-2.487-8.6-4.963c-.361-.208-.734-.394-1.129-.6" transform="translate(-18.307 -64.069)"/>
    <path id="Trazado_875380" data-name="Trazado 875380" d="M298.061,94.843l-9.633,5.486a11.787,11.787,0,0,1-1.144.625,1.983,1.983,0,0,1-1.943-3.45c.94-.625,1.941-1.16,2.92-1.727,2.633-1.523,5.269-3.042,7.942-4.585-.351-.391-.806-.335-1.179-.483a1.931,1.931,0,0,1-1.365-2.356,1.732,1.732,0,0,1,2.072-1.546c2.349.428,4.688.953,6.992,1.582,1.122.306,1.462,1.36,1.07,2.705-.535,1.836-1.109,3.662-1.684,5.486-.451,1.429-1.39,2.056-2.6,1.767-1.151-.275-1.654-1.322-1.35-2.807.035-.17.054-.343.081-.515.029-.093.059-.185.088-.277l-.27.1" transform="translate(-209.881 -64.029)"/>
    <path id="Trazado_875381" data-name="Trazado 875381" d="M248.225,30.487c-.341.07-.68.164-1.024.207a1.87,1.87,0,0,1-2.224-1.373,1.777,1.777,0,0,1,1.045-2.386c2.213-.778,4.46-1.473,6.726-2.076a1.87,1.87,0,0,1,2.334,1.567q.749,2.974,1.358,5.984c.288,1.409-.293,2.417-1.42,2.67-1.253.282-2.118-.34-2.512-1.814-.067-.249-.082-.517-.4-.7q-2.936,5.085-5.869,10.17c-.351.61-.694,1.245-1.425,1.449a2.027,2.027,0,0,1-2.341-3.065q2.689-4.631,5.351-9.277c.215-.375.394-.771.59-1.157l.107-.263-.3.062" transform="translate(-178.657 -18.291)"/>
    <path id="Trazado_875382" data-name="Trazado 875382" d="M243.867,283.071q-.01-8.525-.016-17.051c0-.379-.1-.79.217-1.112q.02,8.59.035,17.18a1.253,1.253,0,0,1-.236.983" transform="translate(-179.928 -195.477)"/>
    <path id="Trazado_875383" data-name="Trazado 875383" d="M223.012,309.414c-.5-1.342-.151-2.734-.224-4.1-.062-1.166,0-2.339,0-3.509a44.464,44.464,0,0,1,.223,7.609" transform="translate(-164.36 -222.704)"/>
    <path id="Trazado_875384" data-name="Trazado 875384" d="M160.1,307.773q0,3.252,0,6.5a1.046,1.046,0,0,1-.223.85,42.406,42.406,0,0,1,.22-7.355" transform="translate(-117.942 -227.108)"/>
    <path id="Trazado_875385" data-name="Trazado 875385" d="M224.027,349.106c-.494-1.52-.134-3.084-.229-4.625-.056-.907,0-1.82.01-2.731a42.63,42.63,0,0,1,.219,7.356" transform="translate(-165.113 -252.18)"/>
    <path id="Trazado_875386" data-name="Trazado 875386" d="M159.1,346.753q0,3.252,0,6.5a1.046,1.046,0,0,1-.223.85,42.194,42.194,0,0,1,.219-7.354" transform="translate(-117.2 -255.871)"/>
    <path id="Trazado_875387" data-name="Trazado 875387" d="M157.112,423.748q0,3.249,0,6.5a1.046,1.046,0,0,1-.224.849,42.539,42.539,0,0,1,.223-7.348" transform="translate(-115.734 -312.687)"/>
    <path id="Trazado_875388" data-name="Trazado 875388" d="M139.14,262.929c.214.163.229.327,0,.493q0-.246,0-.493" transform="translate(-102.672 -194.017)"/>
    <path id="Trazado_875389" data-name="Trazado 875389" d="M46.54,265.646l-.23.116c.024-.093.047-.185.07-.278l.16.161" transform="translate(-34.172 -195.903)"/>
    <path id="Trazado_875390" data-name="Trazado 875390" d="M336.925,265.383c.078.115.125.231-.018.327a2.071,2.071,0,0,1-.145-.175,1.332,1.332,0,0,1,.163-.151" transform="translate(-248.499 -195.828)"/>
    <path id="Trazado_875391" data-name="Trazado 875391" d="M117.373,46.5l-.123-.247.31.03-.187.217" transform="translate(-86.52 -34.133)"/>
    <path id="Trazado_875392" data-name="Trazado 875392" d="M336.445,117.3l.27-.1-.088.277-.182-.181" transform="translate(-248.265 -86.485)"/>
    <path id="Trazado_875393" data-name="Trazado 875393" d="M265.435,46.355l.3-.062-.107.263-.195-.2" transform="translate(-195.866 -34.16)"/>
  </g>
</svg>
