<svg xmlns="http://www.w3.org/2000/svg" xmlns:xlink="http://www.w3.org/1999/xlink" width="166" height="166" viewBox="0 0 166 166">
  <defs>
    <clipPath id="clip-path">
      <rect id="Rectángulo_402651" data-name="Rectángulo 402651" width="75.789" height="119.043" fill="none"/>
    </clipPath>
  </defs>
  <g id="img-12" transform="translate(8273 2372.124)">
    <g id="Grupo_1103071" data-name="Grupo 1103071" transform="translate(-8990 -11747.124)">
      <circle id="Elipse_8443" data-name="Elipse 8443" cx="83" cy="83" r="83" transform="translate(717 9375)" fill="#fff" opacity="0.45"/>
      <circle id="Elipse_8444" data-name="Elipse 8444" cx="67" cy="67" r="67" transform="translate(733 9391)" fill="#fff"/>
    </g>
    <g id="Grupo_1103075" data-name="Grupo 1103075" transform="translate(-8230.124 -2348.646)">
      <g id="Grupo_1102602" data-name="Grupo 1102602" clip-path="url(#clip-path)">
        <path id="Trazado_875341" data-name="Trazado 875341" d="M52.054,381.961l2.073,4.065a38.952,38.952,0,0,1,28.126-.148c.364-.7.7-1.329,1.024-1.964.309-.6.61-1.21,1-1.979A52.655,52.655,0,0,1,97.2,394.924c-8.16,7.949-17.21,13.882-29.019,13.753C56.6,408.55,47.515,402.964,39.5,394.991a56.787,56.787,0,0,1,12.551-13.03M78,386.493c1.767,5.375.678,9.83-2.987,12.773a10.573,10.573,0,0,1-16.73-5.055,11.012,11.012,0,0,1,.466-7.669,44.9,44.9,0,0,0-16.409,8.441c15.6,15.136,35.52,16.267,51.888-.052A45.652,45.652,0,0,0,78,386.493m-5.826,4.755a12.889,12.889,0,0,0-2.09-2.145,1.7,1.7,0,0,1-.919-1.594c-.026-.436-.43-1.155-.755-1.209-.815-.138-.837.593-.9,1.221a2.262,2.262,0,0,1-.387,1.264c-.768.806-1.647,1.506-2.483,2.248-.289.216-.772.1-1.156.249-.362.138-.621.549-.926.84.288.268.6.789.859.761A1.879,1.879,0,0,1,65.6,394.2a1.218,1.218,0,0,0,.579.593,2.026,2.026,0,0,1,1.4,2.3c-.03.243.514.558.793.84.271-.29.786-.594.769-.866a1.943,1.943,0,0,1,1.322-2.217,1.3,1.3,0,0,0,.667-.666,1.869,1.869,0,0,1,2.2-1.3c.253.026.561-.5.844-.779-.312-.285-.581-.687-.948-.822a2.7,2.7,0,0,0-1.058-.032" transform="translate(-29.957 -289.635)"/>
        <path id="Trazado_875342" data-name="Trazado 875342" d="M54.274,162.283c-10.734-7.087-21.422-7.5-32.168-.07a1.969,1.969,0,0,1-.24-.33c-6.187-12.916-12.527-25.762-18.5-38.775-4.46-9.711-4.38-19.682-.376-29.6.148-.368.325-.724.5-1.123l1.423.7C4.1,96.15,3.094,99.123,2.54,102.177a34.021,34.021,0,0,0,2.971,21.114q8.437,17.71,16.957,35.38c.1.215.222.422.269.511a75.943,75.943,0,0,1,7.088-2.966c2.427-.754,4.991-1.068,7.631-1.6a13.082,13.082,0,0,1,.041-2.346,1.6,1.6,0,0,1,.9-1.115c.755-.164,1,.445.99,1.145-.014.836,0,1.673,0,2.362,2.543.581,5.006.963,7.343,1.729,2.306.756,4.485,1.9,6.8,2.908a2.106,2.106,0,0,0,.244-.365c5.694-12.217,11.5-24.383,17.037-36.672,4.165-9.247,4.079-18.687.3-28.092-.119-.295-.239-.589-.4-.976l1.949-.227A35.3,35.3,0,0,1,75.5,103.24a38.463,38.463,0,0,1-3.654,21.54c-5.732,12.155-11.377,24.351-17.061,36.529-.149.32-.328.627-.51.973" transform="translate(0 -70.058)"/>
        <path id="Trazado_875343" data-name="Trazado 875343" d="M181.7,96.541c0,5.631.036,11.091-.05,16.549a2.462,2.462,0,0,1-1.1,1.816c-5.4,2.732-10.845,5.358-16.281,8.009-.06.029-.151,0-.361-.017v-1.5q0-7.891-.008-15.782c0-.6.05-1.017.715-1.319,5.469-2.487,10.916-5.022,16.372-7.538a6.181,6.181,0,0,1,.71-.213" transform="translate(-124.291 -73.211)" fill="#fadc6a"/>
        <path id="Trazado_875344" data-name="Trazado 875344" d="M82.413,96.549c.394.15.766.267,1.117.428,5.242,2.411,10.486,4.815,15.708,7.267a1.57,1.57,0,0,1,.836,1.071c.05,5.784.031,11.568.025,17.352a1.326,1.326,0,0,1-.095.3c-.29-.109-.587-.192-.86-.326-5.111-2.5-10.212-5.02-15.332-7.5a2.293,2.293,0,0,1-1.5-2.233q.016-7.953.011-15.907a2.966,2.966,0,0,1,.087-.45" transform="translate(-62.423 -73.217)" fill="#ffca00"/>
        <path id="Trazado_875345" data-name="Trazado 875345" d="M122.731,67.593c-5.373,2.479-10.459,4.75-15.466,7.181a4.3,4.3,0,0,1-4.214.005c-4.752-2.322-9.59-4.47-14.393-6.688-.286-.132-.559-.291-.98-.512,3.173-1.375,6.222-2.694,9.269-4.017,1.948-.846,3.85-1.832,5.858-2.494a6.018,6.018,0,0,1,3.7-.264c5.37,2.092,10.646,4.426,16.223,6.789" transform="translate(-66.489 -45.959)" fill="#fdeba7"/>
        <path id="Trazado_875346" data-name="Trazado 875346" d="M100.272,14.039C93.1,6.308,84.45,2.18,74.038,1.979c-10.367-.2-19.144,3.575-26.5,10.85l-.852-1.781a35.015,35.015,0,0,1,7.166-5.66,37.9,37.9,0,0,1,45.6,5.058c.957.923.957.923.822,3.593" transform="translate(-35.404 0)"/>
        <path id="Trazado_875347" data-name="Trazado 875347" d="M260.8,54.155a9.741,9.741,0,0,1-2.091-.934c-.385-.3-.522-.924-.768-1.4.51-.167,1.1-.586,1.515-.456a27.977,27.977,0,0,1,4.224,1.7,1.661,1.661,0,0,1,.741,1.375,31.816,31.816,0,0,1-1.325,4.612c-.136.371-.821.541-1.253.8-.233-.482-.653-.965-.654-1.448a9.074,9.074,0,0,1,.569-2.167c-.483.173-.8.257-1.1.4q-3.52,1.686-7.029,3.395c-.7.341-1.433.606-1.857-.274s.259-1.29.95-1.623q3.462-1.668,6.918-3.349c.313-.152.612-.333,1.158-.632" transform="translate(-190.827 -38.931)"/>
        <path id="Trazado_875348" data-name="Trazado 875348" d="M16.586,56.155a10.026,10.026,0,0,1,.55,2.241c0,.488-.412.977-.64,1.465-.439-.306-1.113-.521-1.273-.935a28.369,28.369,0,0,1-1.3-4.374,1.661,1.661,0,0,1,.631-1.433,28.9,28.9,0,0,1,4.337-1.758c.413-.13,1,.3,1.51.471-.247.475-.384,1.092-.768,1.391a9.232,9.232,0,0,1-2.016.9,9.668,9.668,0,0,0,.857.548q3.567,1.737,7.142,3.458c.69.334,1.362.755.938,1.64-.431.9-1.164.6-1.853.26q-3.4-1.659-6.819-3.3c-.353-.17-.717-.317-1.3-.57" transform="translate(-10.547 -38.931)"/>
        <path id="Trazado_875349" data-name="Trazado 875349" d="M146.175,224.5a31.359,31.359,0,0,1-2.613,2.284c-.341.242-.965.084-1.46.108.061-.491-.057-1.149.217-1.442.956-1.024,2.043-1.925,3.086-2.867a1.067,1.067,0,0,1,1.6.053c1.008.92,2.073,1.789,3,2.785.279.3.178.954.251,1.446-.5-.012-1.124.166-1.46-.071a30.966,30.966,0,0,1-2.623-2.3" transform="translate(-107.761 -168.538)"/>
        <path id="Trazado_875350" data-name="Trazado 875350" d="M156.834,248.538a5.542,5.542,0,0,1-.038,1.66,1.519,1.519,0,0,1-.954.905c-.243.047-.845-.513-.873-.836a21.3,21.3,0,0,1,.006-3.7,1.235,1.235,0,0,1,.938-.778c.312.006.794.491.879.843a8.365,8.365,0,0,1,.042,1.9" transform="translate(-117.46 -186.393)"/>
        <path id="Trazado_875351" data-name="Trazado 875351" d="M156.8,278.391a7.272,7.272,0,0,1-.039,1.783c-.094.361-.613.911-.845.867-.383-.073-.944-.532-.979-.874a17.666,17.666,0,0,1,0-3.576c.035-.339.606-.793.99-.861.232-.041.742.515.835.878a7.351,7.351,0,0,1,.037,1.783" transform="translate(-117.426 -209.094)"/>
        <path id="Trazado_875352" data-name="Trazado 875352" d="M156.824,308.175a5.654,5.654,0,0,1-.04,1.672,1.535,1.535,0,0,1-.959.912c-.238.048-.839-.521-.869-.85a20.032,20.032,0,0,1,0-3.6c.03-.334.579-.62.889-.928.326.331.822.611.936,1a6.624,6.624,0,0,1,.041,1.794" transform="translate(-117.448 -231.579)"/>
        <path id="Trazado_875353" data-name="Trazado 875353" d="M151.449,418.2a1.808,1.808,0,1,0,1.891-1.752,1.821,1.821,0,0,0-1.891,1.752" transform="translate(-114.849 -315.809)" fill="#fff"/>
        <path id="Trazado_875354" data-name="Trazado 875354" d="M83.707,445.355c-.28.842-.695,1.358-1.452.926-1.626-.93-3.225-1.917-4.773-2.971-.259-.177-.416-1.035-.256-1.183a1.45,1.45,0,0,1,1.293-.317c1.572.862,3.084,1.839,4.593,2.812a2.876,2.876,0,0,1,.594.734" transform="translate(-58.515 -334.995)"/>
        <path id="Trazado_875355" data-name="Trazado 875355" d="M116.3,463.675c-1.339-.489-2.523-.862-3.642-1.377a.915.915,0,0,1,.68-1.653,20.2,20.2,0,0,1,3.278,1.13,1.224,1.224,0,0,1,.469,1.051c-.049.314-.5.565-.785.848" transform="translate(-85.16 -349.316)"/>
        <path id="Trazado_875356" data-name="Trazado 875356" d="M151.449,418.2a1.808,1.808,0,1,1,1.784,1.865,1.81,1.81,0,0,1-1.784-1.865" transform="translate(-114.849 -315.809)"/>
      </g>
    </g>
  </g>
</svg>
