<svg xmlns="http://www.w3.org/2000/svg" xmlns:xlink="http://www.w3.org/1999/xlink" width="118.401" height="118.394" viewBox="0 0 118.401 118.394">
  <defs>
    <clipPath id="clip-path">
      <rect id="Rectángulo_402669" data-name="Rectángulo 402669" width="118.401" height="118.394" transform="translate(0 0)" fill="none"/>
    </clipPath>
  </defs>
  <g id="img-17" transform="translate(0 0.005)">
    <g id="Grupo_1102616" data-name="Grupo 1102616" transform="translate(0 -0.005)" clip-path="url(#clip-path)">
      <path id="Trazado_875367" data-name="Trazado 875367" d="M506.8,55.268h-4.834a2.02,2.02,0,0,1-2.073-1.75c-.184-.99-.39-1.976-.6-2.962a.324.324,0,0,0-.159-.206q-1.5-.636-3.016-1.247a.411.411,0,0,0-.317.063c-.876.57-1.744,1.151-2.616,1.727a1.97,1.97,0,0,1-2.477-.254q-3.5-3.5-7-7a2.022,2.022,0,0,1-.235-2.388c.58-.883,1.172-1.758,1.748-2.643a.44.44,0,0,0,.058-.344q-.6-1.484-1.227-2.952a.431.431,0,0,0-.27-.21c-.963-.208-1.928-.411-2.9-.594a2.04,2.04,0,0,1-1.768-2.126c0-3.146.024-6.292-.012-9.437a2.156,2.156,0,0,1,1.827-2.218c.953-.125,1.892-.367,2.833-.573a.474.474,0,0,0,.292-.236q.622-1.438,1.206-2.891a.472.472,0,0,0-.044-.373c-.523-.815-1.05-1.629-1.6-2.426a2.135,2.135,0,0,1,.284-2.868q3.324-3.3,6.629-6.624a1.99,1.99,0,0,1,1.659-.691,2.8,2.8,0,0,1,1.086.382c.837.509,1.644,1.068,2.456,1.617a.425.425,0,0,0,.471.054c.97-.415,1.953-.8,2.926-1.212a.344.344,0,0,0,.164-.22c.225-1.06.425-2.125.662-3.181a1.9,1.9,0,0,1,1.9-1.49H511.7a1.956,1.956,0,0,1,1.949,1.635q.284,1.517.6,3.027a.451.451,0,0,0,.243.266c.962.407,1.928.805,2.9,1.185a.519.519,0,0,0,.4-.071c.815-.524,1.618-1.066,2.426-1.6a2.041,2.041,0,0,1,2.752.265c2.264,2.262,4.519,4.533,6.794,6.785a2.138,2.138,0,0,1,.243,2.642c-.555.82-1.1,1.651-1.651,2.471a.437.437,0,0,0-.042.479q.594,1.378,1.149,2.773a.427.427,0,0,0,.359.315c1.1.219,2.213.426,3.3.7a1.873,1.873,0,0,1,1.292,1.776c0,3.288-.016,6.577.011,9.865a2.114,2.114,0,0,1-1.57,1.957c-1.045.18-2.081.416-3.119.638a.356.356,0,0,0-.226.173c-.408.973-.811,1.949-1.194,2.932a.556.556,0,0,0,.042.437c.527.825,1.074,1.638,1.617,2.453a2.043,2.043,0,0,1-.218,2.667q-3.407,3.429-6.836,6.835a2.052,2.052,0,0,1-2.712.2c-.82-.537-1.638-1.076-2.445-1.631a.39.39,0,0,0-.441-.03c-.91.39-1.826.767-2.744,1.139a.466.466,0,0,0-.359.393q-.285,1.565-.642,3.117a1.9,1.9,0,0,1-1.88,1.476c-1.633,0-3.266,0-4.9,0M487.825,13.207a1.254,1.254,0,0,0,.077.156c.459.7.9,1.416,1.385,2.1a2.1,2.1,0,0,1,.075,2.451,17.815,17.815,0,0,0-1.723,4.154,2.183,2.183,0,0,1-1.705,1.772c-.531.11-1.065.2-1.6.312-.407.082-.813.173-1.206.258v6.45c.92.184,1.831.37,2.744.548a1.993,1.993,0,0,1,1.659,1.506,21.824,21.824,0,0,0,1.944,4.663,1.831,1.831,0,0,1-.029,1.933c-.484.788-1.006,1.552-1.522,2.32a.268.268,0,0,0,.032.413q2.113,2.1,4.21,4.207a.25.25,0,0,0,.388.035c.681-.469,1.378-.916,2.065-1.378a2.053,2.053,0,0,1,2.126-.233c.4.188.769.468,1.182.631,1.221.483,2.457.927,3.686,1.389a1.771,1.771,0,0,1,1.151.991,12.176,12.176,0,0,1,.406,1.532c.139.62.25,1.246.375,1.877,2.113,0,4.184,0,6.255,0,.227,0,.243-.147.271-.289.144-.724.293-1.447.414-2.175a2.293,2.293,0,0,1,1.813-2.042,17.843,17.843,0,0,0,4.24-1.77,2.065,2.065,0,0,1,2.409.1c.649.458,1.326.876,1.98,1.328a.317.317,0,0,0,.494-.045c.7-.724,1.42-1.432,2.135-2.143.736-.733,1.476-1.464,2.221-2.2-.543-.818-1.074-1.6-1.586-2.395a2.051,2.051,0,0,1-.048-2.224,17.559,17.559,0,0,0,1.745-4.145,2.322,2.322,0,0,1,2.1-1.954c.811-.11,1.607-.322,2.427-.492,0-2.1,0-4.186-.01-6.267a.349.349,0,0,0-.225-.24c-.815-.175-1.633-.334-2.452-.488a2.006,2.006,0,0,1-1.707-1.473,20.59,20.59,0,0,0-1.894-4.61,2.142,2.142,0,0,1-.258-1.276,2.511,2.511,0,0,1,.488-1.193c.466-.693.925-1.39,1.375-2.068l-4.584-4.581c-.767.509-1.545,1.03-2.328,1.543a2.02,2.02,0,0,1-2.234.047,21.237,21.237,0,0,0-4.488-1.852,1.936,1.936,0,0,1-1.492-1.522c-.185-.847-.374-1.694-.517-2.548-.052-.311-.18-.356-.45-.355-1.918.009-3.836,0-5.755,0h-.344c-.189.948-.365,1.872-.559,2.792a1.95,1.95,0,0,1-1.421,1.6,21.978,21.978,0,0,0-4.64,1.907,2.029,2.029,0,0,1-2.2-.068c-.794-.513-1.578-1.042-2.346-1.551l-4.561,4.555" transform="translate(-447.6 0.005)"/>
      <path id="Trazado_875368" data-name="Trazado 875368" d="M933.521,787.805c.437.156.832.3,1.228.436.689.238,1.382.466,2.07.709a2.038,2.038,0,0,1,1.2,1.909c0,2.707-.027,5.415.013,8.122a5.859,5.859,0,0,0,4.619,5.454,7.265,7.265,0,0,0,1.391.153,7.229,7.229,0,0,1,4.791,1.86,8.257,8.257,0,0,1,2.753,5.085,5.628,5.628,0,0,1,.062.913c.006,1.337,0,2.674,0,4.012a1.993,1.993,0,1,1-3.986-.036c.026-1.194.017-2.389,0-3.584a4.4,4.4,0,0,0-1.4-3.3,3.4,3.4,0,0,0-2.361-.957,9.812,9.812,0,0,1-4.356-.97,9.911,9.911,0,0,1-4.248-3.993,10.243,10.243,0,0,1-1.313-5.057c-.006-1.973-.012-3.946.006-5.919a.494.494,0,0,0-.421-.563,12.532,12.532,0,0,1-2.069-.792,3.722,3.722,0,0,1-1.993-2.993,4.456,4.456,0,0,1,1.209-3.454c.809-.995,1.607-2,2.334-3.057a5.191,5.191,0,0,0,.983-2.831c.028-1.167.013-2.336.005-3.5a23.207,23.207,0,0,1,.6-5.235,26.456,26.456,0,0,1,1.875-5.513,25.488,25.488,0,0,1,3.772-5.9,21.286,21.286,0,0,1,1.863-2.021c1.1-.975,2.228-1.918,3.413-2.78a24.063,24.063,0,0,1,7.035-3.467,21.517,21.517,0,0,1,4.636-.988c1.03-.086,2.061-.231,3.091-.224a26.107,26.107,0,0,1,10.065,2.006,24.711,24.711,0,0,1,6.521,3.94,35.459,35.459,0,0,1,2.886,2.717,24.758,24.758,0,0,1,3.505,4.859,26.6,26.6,0,0,1,2.7,6.879,22.453,22.453,0,0,1,.645,4.272c.026.653.115,1.306.1,1.958-.017.914-.092,1.828-.159,2.74a23.594,23.594,0,0,1-.766,4.285,26.251,26.251,0,0,1-1.639,4.465,31.042,31.042,0,0,1-3.609,5.7,15.535,15.535,0,0,0-2.2,4.106,17.869,17.869,0,0,0-1.148,7.42c.106,1.741.473,3.438.719,5.155.249,1.738.525,3.471.781,5.208.074.5.123,1.01.185,1.514a1.976,1.976,0,0,1-3.679.917,3.968,3.968,0,0,1-.37-1.3c-.251-1.473-.479-2.951-.705-4.429-.246-1.607-.464-3.219-.726-4.823a20.129,20.129,0,0,1-.221-4.37,19.657,19.657,0,0,1,.853-5.02c.349-1.074.735-2.14,1.171-3.182a22.824,22.824,0,0,1,3.084-4.907,22.368,22.368,0,0,0,4.073-9.511c.133-.778.2-1.57.263-2.358.049-.608.059-1.221.065-1.832a22.556,22.556,0,0,0-2.7-10.508,23.42,23.42,0,0,0-2.851-4.129A22.355,22.355,0,0,0,972,756.674a21.823,21.823,0,0,0-5.472-2.439,21.313,21.313,0,0,0-4.173-.8,33.241,33.241,0,0,0-3.4-.017,15.2,15.2,0,0,0-4.034.669,35.015,35.015,0,0,0-3.517,1.285,20.069,20.069,0,0,0-4.718,2.893,23.641,23.641,0,0,0-6.458,8.081,22.442,22.442,0,0,0-1.911,6.006,26.42,26.42,0,0,0-.3,4.818c.008.534.071,1.069.053,1.6a10.351,10.351,0,0,1-.878,3.817,16.234,16.234,0,0,1-2.372,3.58c-.42.525-.836,1.054-1.3,1.639" transform="translate(-868.346 -700.043)"/>
      <path id="Trazado_875369" data-name="Trazado 875369" d="M53.171,787.77c-.347-.443-.691-.859-1.01-1.294-.725-.99-1.475-1.964-2.144-2.99a8.67,8.67,0,0,1-1.275-3.669,15.687,15.687,0,0,1-.121-1.92c0-.531.1-1.062.1-1.593,0-.684-.05-1.369-.115-2.051-.08-.83-.157-1.664-.309-2.482a21.67,21.67,0,0,0-1.7-5.224,20.707,20.707,0,0,0-3.083-4.867,29.411,29.411,0,0,0-2.955-2.962,24.111,24.111,0,0,0-3.134-2.281,20.4,20.4,0,0,0-6.866-2.681,26.526,26.526,0,0,0-2.767-.37,18.6,18.6,0,0,0-2.458-.058,19.393,19.393,0,0,0-5.118.873,35.965,35.965,0,0,0-3.44,1.313,20.5,20.5,0,0,0-2.335,1.311,22.45,22.45,0,0,0-7.462,7.866A22.908,22.908,0,0,0,5.1,768.922a23.832,23.832,0,0,0-.89,3.928,18.761,18.761,0,0,0-.221,3.907c.083,1.229.259,2.456.46,3.673a19.935,19.935,0,0,0,1.706,5.222A25.8,25.8,0,0,0,9.218,790.5a19.407,19.407,0,0,1,2.347,3.991,22.834,22.834,0,0,1,1.611,5.215,17.459,17.459,0,0,1,.252,2.132,25.992,25.992,0,0,1,.056,2.74c-.047,1.019-.168,2.036-.3,3.047-.186,1.374-.414,2.742-.629,4.111-.185,1.177-.379,2.352-.566,3.529-.075.471-.122.947-.212,1.415a1.982,1.982,0,0,1-1.735,1.689,2.012,2.012,0,0,1-2.217-2.492c.255-1.306.412-2.632.618-3.948.188-1.2.4-2.394.574-3.594.164-1.1.335-2.208.439-3.318a17.53,17.53,0,0,0-.872-7.1,18.119,18.119,0,0,0-3.129-5.725A24.253,24.253,0,0,1,3.1,788.539a26.321,26.321,0,0,1-1.792-4.165,22.72,22.72,0,0,1-1.122-5.038,37.658,37.658,0,0,1-.172-4.711,25.5,25.5,0,0,1,1.58-7.889,25.238,25.238,0,0,1,3.916-7.093,32.418,32.418,0,0,1,3.038-3.338,26.037,26.037,0,0,1,11.658-6.267c1.139-.255,2.3-.426,3.46-.572a18.2,18.2,0,0,1,2.734-.176,27.251,27.251,0,0,1,5.748.673,28.013,28.013,0,0,1,5.346,1.871,25.71,25.71,0,0,1,5.316,3.356A29.048,29.048,0,0,1,45.4,757.6a25.75,25.75,0,0,1,3.667,4.9,24.988,24.988,0,0,1,2.25,4.961,32.826,32.826,0,0,1,.964,3.881,24.164,24.164,0,0,1,.36,3.3c.06,1.22.034,2.446.008,3.668a6.375,6.375,0,0,0,1.408,4.051c.824,1.093,1.725,2.131,2.511,3.249a3.951,3.951,0,0,1-.482,5.009,3.83,3.83,0,0,1-1.571.966c-.477.152-.945.333-1.425.47a.451.451,0,0,0-.389.522c.018,2.006.007,4.012.01,6.017A9.707,9.707,0,0,1,50.67,804.7a9.546,9.546,0,0,1-6.2,3.707,12.56,12.56,0,0,1-1.656.128,3.467,3.467,0,0,0-2.182.825,4.15,4.15,0,0,0-1.546,3.376c.009,1.184.014,2.368,0,3.551a2.013,2.013,0,1,1-4.023.143c-.048-1.346-.054-2.7,0-4.044a8.212,8.212,0,0,1,1.838-4.959,7.619,7.619,0,0,1,4.685-2.8,13.126,13.126,0,0,1,1.66-.128,5.634,5.634,0,0,0,3.283-1.283,5.827,5.827,0,0,0,2.059-3.391,6.362,6.362,0,0,0,.145-1.358c.013-2.576.021-5.152,0-7.727a1.984,1.984,0,0,1,1.4-1.918c.931-.3,1.855-.626,2.781-.942.079-.027.154-.067.265-.117" transform="translate(-0.001 -700.006)"/>
      <path id="Trazado_875370" data-name="Trazado 875370" d="M785,221.54h.4q3.913,0,7.826,0a1.969,1.969,0,0,1,1.84,2.234,4.68,4.68,0,0,1-1,1.885c-2.375,3.6-4.775,7.178-7.165,10.765a2.056,2.056,0,0,1-2.417.808,1.971,1.971,0,0,1-1.283-2.184,2.291,2.291,0,0,1,.359-.867q2.774-4.2,5.572-8.378c.052-.078.1-.162.169-.288h-.363q-3.847,0-7.695,0a1.866,1.866,0,0,1-1.709-.964,1.959,1.959,0,0,1,.046-2.172q3.91-5.893,7.841-11.772a1.958,1.958,0,0,1,2.068-.895,1.821,1.821,0,0,1,1.578,1.461,1.964,1.964,0,0,1-.25,1.6q-2.836,4.233-5.652,8.48c-.052.078-.094.162-.166.287" transform="translate(-727.982 -195.89)"/>
    </g>
  </g>
</svg>
