<svg xmlns="http://www.w3.org/2000/svg" xmlns:xlink="http://www.w3.org/1999/xlink" width="246.793" height="108.831" viewBox="0 0 246.793 108.831">
  <defs>
    <clipPath id="clip-path">
      <rect id="Rectángulo_402531" data-name="Rectángulo 402531" width="246.793" height="108.831" fill="none"/>
    </clipPath>
    <clipPath id="clip-path-2">
      <rect id="Rectángulo_402530" data-name="Rectángulo 402530" width="246.793" height="108.831" transform="translate(0 0)" fill="none"/>
    </clipPath>
    <clipPath id="clip-path-3">
      <rect id="Rectángulo_402529" data-name="Rectángulo 402529" width="165.903" height="76.27" transform="translate(80.89 32.562)" fill="none"/>
    </clipPath>
  </defs>
  <g id="Grupo_1103870" data-name="Grupo 1103870" transform="translate(13348.419 12732.929)">
    <g id="Grupo_1103859" data-name="Grupo 1103859" transform="translate(-13348.419 -12732.929)">
      <g id="Grupo_1101666" data-name="Grupo 1101666" clip-path="url(#clip-path)">
        <g id="Grupo_1101665" data-name="Grupo 1101665">
          <g id="Grupo_1101664" data-name="Grupo 1101664" clip-path="url(#clip-path-2)">
            <circle id="Elipse_11513" data-name="Elipse 11513" cx="2.168" cy="2.168" r="2.168" transform="translate(0.5 0.5)" fill="none" stroke="#17014e" stroke-linecap="round" stroke-linejoin="round" stroke-width="1"/>
            <path id="Trazado_874476" data-name="Trazado 874476" d="M4.836,3.858c13.277,9.522,5.955,42.825,23.777,53.3,20.739,12.189,62.212,6.9,62.212,6.9" fill="none" stroke="#17014e" stroke-linecap="round" stroke-linejoin="round" stroke-width="1"/>
            <g id="Grupo_1101663" data-name="Grupo 1101663" opacity="0.09" style="mix-blend-mode: multiply;isolation: isolate">
              <g id="Grupo_1101662" data-name="Grupo 1101662">
                <g id="Grupo_1101661" data-name="Grupo 1101661" clip-path="url(#clip-path-3)">
                  <path id="Trazado_874477" data-name="Trazado 874477" d="M232.676,108.695q-70.788.967-141.445-4.971a10.412,10.412,0,0,1-9.489-9.71C80.46,74.6,80.524,60.1,82.631,41.794a10.423,10.423,0,0,1,10.4-9.233c47.9.25,95.823,1.277,144.061,4.434a10.4,10.4,0,0,1,9.7,10.659A494.4,494.4,0,0,1,242.824,99.7a10.39,10.39,0,0,1-10.148,8.993" fill="#17014e"/>
                </g>
              </g>
            </g>
            <path id="Trazado_874478" data-name="Trazado 874478" d="M229.522,101.043q-70.685,3.943-141.529.98a10.41,10.41,0,0,1-9.888-9.3c-2.1-19.341-2.643-33.83-1.308-52.211a10.421,10.421,0,0,1,10-9.662c47.871-1.765,95.792-2.753,144.121-1.627a10.4,10.4,0,0,1,10.142,10.241,494.189,494.189,0,0,1-1.774,52.169,10.392,10.392,0,0,1-9.761,9.412" fill="#fff"/>
            <path id="Trazado_874479" data-name="Trazado 874479" d="M239.551,88.415a18.519,18.519,0,0,1-9.31,6.621c-4.856,1.627-10.074,1.714-15.195,1.786q-54.56.765-109.117,1.529c-5.806.081-11.69.154-17.32-1.264a28.259,28.259,0,0,1-10.581-5.1c.026.246.05.483.076.729a10.413,10.413,0,0,0,9.889,9.3q70.732,2.967,141.529-.98a10.392,10.392,0,0,0,9.761-9.412c.1-1.072.179-2.144.268-3.216" fill="#7f7aff"/>
            <path id="Trazado_874480" data-name="Trazado 874480" d="M184.184,97.255l-78.255,1.1c-5.806.081-11.689.155-17.319-1.263a30.355,30.355,0,0,1-5.489-1.961" fill="none" stroke="#17014e" stroke-linecap="round" stroke-linejoin="round" stroke-width="1"/>
            <path id="Trazado_874481" data-name="Trazado 874481" d="M215.046,96.823l-21.862.306" fill="none" stroke="#17014e" stroke-linecap="round" stroke-linejoin="round" stroke-width="1"/>
            <path id="Trazado_874482" data-name="Trazado 874482" d="M238.011,90.279a19.554,19.554,0,0,1-7.77,4.757,32.109,32.109,0,0,1-6.914,1.42" fill="none" stroke="#17014e" stroke-linecap="round" stroke-linejoin="round" stroke-width="1"/>
            <path id="Trazado_874483" data-name="Trazado 874483" d="M209.135,61.873V56.155l-.915.49v-1.23l.254-.151.39-.234c.116-.071.238-.147.365-.23a3.09,3.09,0,0,0,.261-.186H210.8v7.259Z" fill="#17014e"/>
            <path id="Trazado_874484" data-name="Trazado 874484" d="M214.7,62.021a1.977,1.977,0,0,1-1.508-.556,2.091,2.091,0,0,1-.528-1.5V56.614a2.247,2.247,0,0,1,.51-1.555,2.316,2.316,0,0,1,3.043,0,2.248,2.248,0,0,1,.51,1.553v3.349a2.083,2.083,0,0,1-.534,1.493,1.954,1.954,0,0,1-1.493.565m0-1.493q.338,0,.337-.617v-3.4c0-.019,0-.051,0-.094a.661.661,0,0,0-.013-.1l-.024-.1a.258.258,0,0,0-.042-.091c-.018-.022-.037-.045-.059-.068a.191.191,0,0,0-.083-.051.394.394,0,0,0-.112-.015.38.38,0,0,0-.14.024.19.19,0,0,0-.1.081c-.024.038-.044.072-.06.1a.357.357,0,0,0-.032.131c-.006.057-.009.1-.009.121v3.459q0,.616.337.617" fill="#17014e"/>
            <path id="Trazado_874485" data-name="Trazado 874485" d="M219.613,62.021a1.977,1.977,0,0,1-1.508-.556,2.092,2.092,0,0,1-.528-1.5V56.614a2.247,2.247,0,0,1,.51-1.555,2.316,2.316,0,0,1,3.043,0,2.248,2.248,0,0,1,.51,1.553v3.349a2.083,2.083,0,0,1-.534,1.493,1.954,1.954,0,0,1-1.493.565m0-1.493q.337,0,.337-.617v-3.4c0-.019,0-.051,0-.094a.661.661,0,0,0-.013-.1l-.024-.1a.258.258,0,0,0-.042-.091c-.018-.022-.037-.045-.059-.068a.191.191,0,0,0-.083-.051.394.394,0,0,0-.112-.015.384.384,0,0,0-.14.024.19.19,0,0,0-.1.081c-.024.038-.043.072-.06.1a.378.378,0,0,0-.032.131c-.006.057-.009.1-.009.121v3.459q0,.616.337.617" fill="#17014e"/>
            <path id="Trazado_874486" data-name="Trazado 874486" d="M214.565,48.658c-1.046,1.07-2.115,2.118-3.211,3.118a.424.424,0,0,1-.541.023,22.028,22.028,0,0,1-2.86-2.617.422.422,0,0,1,0-.572c.995-1.085,1.987-2.176,2.96-3.347-.979-.871-2.677-2.394-3.354-3.038a.422.422,0,0,1-.018-.594c.9-.963,1.951-2.018,2.9-2.988a.422.422,0,0,1,.583-.018c1.067.959,2.143,1.92,3.315,2.912a31.7,31.7,0,0,1,2.983-3.08.424.424,0,0,1,.539-.02,22.893,22.893,0,0,1,2.859,2.6.424.424,0,0,1,.025.549c-.881,1.142-1.839,2.237-2.9,3.384,1.1.98,2.2,1.96,3.316,3a.423.423,0,0,1,.02.6l-2.839,3a.422.422,0,0,1-.593.02Z" fill="#7f7aff"/>
            <path id="Trazado_874487" data-name="Trazado 874487" d="M191.469,50.983H121.725a3.576,3.576,0,0,1,0-7.153h69.744a3.576,3.576,0,1,1,0,7.153" fill="#7f7aff"/>
            <path id="Trazado_874488" data-name="Trazado 874488" d="M172.027,45.117h8.46a2.289,2.289,0,1,1,0,4.578h-8.46a2.289,2.289,0,0,1,0-4.578" fill="#17014e"/>
            <path id="Trazado_874489" data-name="Trazado 874489" d="M174.3,61.967a2.466,2.466,0,0,1-.965-.171,1.5,1.5,0,0,1-.641-.49,2.136,2.136,0,0,1-.345-.731,3.439,3.439,0,0,1-.1-.865v-.076a2.577,2.577,0,0,1,.214-.993,1.214,1.214,0,0,1,.609-.637,1.626,1.626,0,0,1-.489-.609,2.289,2.289,0,0,1-.211-.96v-.093a1.749,1.749,0,0,1,1.93-1.9,1.886,1.886,0,0,1,1.441.527,1.919,1.919,0,0,1,.471,1.375v.093a2.431,2.431,0,0,1-.209.972,1.5,1.5,0,0,1-.476.6,1.254,1.254,0,0,1,.61.639,2.5,2.5,0,0,1,.22.991v.119a3.585,3.585,0,0,1-.088.822,2.065,2.065,0,0,1-.345.731,1.528,1.528,0,0,1-.65.49,2.513,2.513,0,0,1-.974.171m0-1.2a.355.355,0,0,0,.139-.027.247.247,0,0,0,.1-.085c.027-.04.052-.078.072-.114a.491.491,0,0,0,.049-.153c.011-.063.021-.116.029-.155a1.651,1.651,0,0,0,.014-.167c0-.072.005-.121.005-.147V59.78q0-.127,0-.258c0-.086-.007-.169-.011-.248a1.031,1.031,0,0,0-.035-.222.847.847,0,0,0-.07-.178.316.316,0,0,0-.119-.119.356.356,0,0,0-.178-.043.378.378,0,0,0-.174.037.272.272,0,0,0-.116.123,1.158,1.158,0,0,0-.07.163.847.847,0,0,0-.037.221c-.008.1-.012.175-.014.233s0,.145,0,.26v.191q0,.054.009.174c.006.078.013.142.021.19a1.445,1.445,0,0,0,.045.169.522.522,0,0,0,.072.155.355.355,0,0,0,.11.1.3.3,0,0,0,.156.04m0-3.322q.36,0,.36-1.051a1.178,1.178,0,0,0-.1-.529.3.3,0,0,0-.264-.188.306.306,0,0,0-.279.188,1.137,1.137,0,0,0-.1.525q0,1.054.378,1.055" fill="#17014e"/>
            <path id="Trazado_874490" data-name="Trazado 874490" d="M178.6,61.84V56.1l-.919.492V55.358c.026-.014.111-.065.255-.152l.391-.235c.117-.07.24-.147.367-.231a2.443,2.443,0,0,0,.261-.186h1.315V61.84Z" fill="#17014e"/>
            <path id="Trazado_874491" data-name="Trazado 874491" d="M191.469,76.653H121.725a3.576,3.576,0,0,1,0-7.153h69.744a3.576,3.576,0,1,1,0,7.153" fill="#ffcf4e"/>
            <path id="Trazado_874492" data-name="Trazado 874492" d="M142.986,70.787h8.46a2.289,2.289,0,1,1,0,4.578h-8.46a2.289,2.289,0,0,1,0-4.578" fill="#17014e"/>
            <path id="Trazado_874493" data-name="Trazado 874493" d="M144.783,87.738a2.77,2.77,0,0,1-.841-.116,1.675,1.675,0,0,1-.6-.319,1.472,1.472,0,0,1-.376-.512,2.633,2.633,0,0,1-.2-.661,4.911,4.911,0,0,1-.059-.8v-.259h1.662v.285a2.131,2.131,0,0,0,.094.772.347.347,0,0,0,.345.209.307.307,0,0,0,.312-.192,1.95,1.95,0,0,0,.079-.67,1.663,1.663,0,0,0-.143-.808.624.624,0,0,0-.574-.243h-.306V83.37h.276a.648.648,0,0,0,.6-.244,1.646,1.646,0,0,0,.151-.82,1.43,1.43,0,0,0-.1-.613.35.35,0,0,0-.34-.195.3.3,0,0,0-.31.2,1.724,1.724,0,0,0-.081.609v.447h-1.662v-.5a2.083,2.083,0,0,1,.545-1.547,2.042,2.042,0,0,1,1.5-.541,2.169,2.169,0,0,1,1.529.51,1.947,1.947,0,0,1,.549,1.494,2.179,2.179,0,0,1-.246,1.067,1.007,1.007,0,0,1-.6.538,1.389,1.389,0,0,1,.329.188,1.237,1.237,0,0,1,.266.3,1.439,1.439,0,0,1,.186.477,2.983,2.983,0,0,1,.067.672,3.506,3.506,0,0,1-.113.932,2.114,2.114,0,0,1-.348.729,1.515,1.515,0,0,1-.64.486,2.461,2.461,0,0,1-.952.169" fill="#17014e"/>
            <path id="Trazado_874494" data-name="Trazado 874494" d="M149.675,87.738a2.78,2.78,0,0,1-.846-.114,1.589,1.589,0,0,1-.564-.3,1.277,1.277,0,0,1-.334-.5,2.477,2.477,0,0,1-.162-.63,6.087,6.087,0,0,1-.04-.77h1.594a4.363,4.363,0,0,0,.042.695.605.605,0,0,0,.139.325.355.355,0,0,0,.246.079h.048q.259-.018.321-.327a6.8,6.8,0,0,0,.062-1.127c0-.176-.007-.328-.02-.457a2.053,2.053,0,0,0-.07-.365.552.552,0,0,0-.152-.262.364.364,0,0,0-.25-.09.4.4,0,0,0-.338.16,1.091,1.091,0,0,0-.168.526h-1.442l.168-4.281h3.485v1.336h-2.176L149.126,83a.668.668,0,0,1,.313-.194,2.174,2.174,0,0,1,.527-.127,1.739,1.739,0,0,1,.246-.018,1.245,1.245,0,0,1,1.045.527,3.094,3.094,0,0,1,.467,1.864q0,.364-.021.648a4.81,4.81,0,0,1-.074.573,2.312,2.312,0,0,1-.149.5,1.954,1.954,0,0,1-.248.4,1.269,1.269,0,0,1-.368.309,1.932,1.932,0,0,1-.511.187,3.1,3.1,0,0,1-.678.068" fill="#17014e"/>
            <path id="Trazado_874495" data-name="Trazado 874495" d="M209.135,87.542V81.824l-.915.49v-1.23l.254-.151.39-.234c.116-.071.238-.147.365-.23a3.09,3.09,0,0,0,.261-.186H210.8v7.259Z" fill="#17014e"/>
            <path id="Trazado_874496" data-name="Trazado 874496" d="M214.7,87.691a1.977,1.977,0,0,1-1.508-.556,2.091,2.091,0,0,1-.528-1.5V82.284a2.247,2.247,0,0,1,.51-1.555,2.316,2.316,0,0,1,3.043,0,2.248,2.248,0,0,1,.51,1.553v3.349a2.083,2.083,0,0,1-.534,1.493,1.954,1.954,0,0,1-1.493.565m0-1.493q.338,0,.337-.617v-3.4c0-.019,0-.051,0-.094a.661.661,0,0,0-.013-.1l-.024-.1a.258.258,0,0,0-.042-.091c-.018-.022-.037-.045-.059-.068a.191.191,0,0,0-.083-.051.394.394,0,0,0-.112-.015.38.38,0,0,0-.14.024.19.19,0,0,0-.1.081c-.024.038-.044.072-.06.1a.357.357,0,0,0-.032.131c-.006.057-.009.1-.009.121v3.459q0,.616.337.617" fill="#17014e"/>
            <path id="Trazado_874497" data-name="Trazado 874497" d="M219.613,87.691a1.977,1.977,0,0,1-1.508-.556,2.092,2.092,0,0,1-.528-1.5V82.284a2.247,2.247,0,0,1,.51-1.555,2.316,2.316,0,0,1,3.043,0,2.248,2.248,0,0,1,.51,1.553v3.349a2.083,2.083,0,0,1-.534,1.493,1.954,1.954,0,0,1-1.493.565m0-1.493q.337,0,.337-.617v-3.4c0-.019,0-.051,0-.094a.661.661,0,0,0-.013-.1l-.024-.1a.258.258,0,0,0-.042-.091c-.018-.022-.037-.045-.059-.068a.191.191,0,0,0-.083-.051.394.394,0,0,0-.112-.015.384.384,0,0,0-.14.024.19.19,0,0,0-.1.081c-.024.038-.043.072-.06.1a.378.378,0,0,0-.032.131c-.006.057-.009.1-.009.121v3.459q0,.616.337.617" fill="#17014e"/>
            <line id="Línea_3832" data-name="Línea 3832" y2="6.328" transform="translate(208.984 71.789)" fill="none" stroke="#17014e" stroke-linecap="round" stroke-linejoin="round" stroke-width="1"/>
            <line id="Línea_3833" data-name="Línea 3833" y1="3.851" x2="3.375" transform="translate(207.296 73.027)" fill="none" stroke="#17014e" stroke-linecap="round" stroke-linejoin="round" stroke-width="1"/>
            <line id="Línea_3834" data-name="Línea 3834" y2="6.328" transform="translate(220.734 71.789)" fill="none" stroke="#17014e" stroke-linecap="round" stroke-linejoin="round" stroke-width="1"/>
            <line id="Línea_3835" data-name="Línea 3835" y1="3.851" x2="3.375" transform="translate(219.046 73.027)" fill="none" stroke="#17014e" stroke-linecap="round" stroke-linejoin="round" stroke-width="1"/>
            <line id="Línea_3836" data-name="Línea 3836" x2="11.75" transform="translate(208.984 74.953)" fill="none" stroke="#17014e" stroke-linecap="round" stroke-linejoin="round" stroke-width="1"/>
            <path id="Trazado_874498" data-name="Trazado 874498" d="M102.139,49.582c-.643.658-1.3,1.3-1.974,1.916a.26.26,0,0,1-.332.015A13.674,13.674,0,0,1,98.075,49.9a.259.259,0,0,1,0-.351c.611-.667,1.22-1.338,1.818-2.058-.6-.535-1.645-1.471-2.061-1.866a.26.26,0,0,1-.011-.365c.551-.592,1.2-1.241,1.784-1.836a.26.26,0,0,1,.358-.012c.656.589,1.317,1.18,2.038,1.79a19.412,19.412,0,0,1,1.833-1.893.26.26,0,0,1,.331-.012,14.033,14.033,0,0,1,1.757,1.6.261.261,0,0,1,.016.337c-.542.7-1.131,1.375-1.786,2.08.675.6,1.35,1.2,2.038,1.842a.259.259,0,0,1,.012.369l-1.744,1.845a.261.261,0,0,1-.365.013Z" fill="#7f7aff"/>
            <path id="Trazado_874499" data-name="Trazado 874499" d="M102.4,62.021a1.977,1.977,0,0,1-1.508-.556,2.091,2.091,0,0,1-.528-1.5V56.614a2.247,2.247,0,0,1,.51-1.555,2.316,2.316,0,0,1,3.043,0,2.248,2.248,0,0,1,.51,1.553v3.349a2.083,2.083,0,0,1-.534,1.493,1.954,1.954,0,0,1-1.493.565m0-1.493q.337,0,.337-.617v-3.4c0-.019,0-.051,0-.094a.81.81,0,0,0-.013-.1l-.024-.1a.257.257,0,0,0-.042-.091c-.018-.022-.037-.045-.059-.068a.191.191,0,0,0-.083-.051.394.394,0,0,0-.112-.015.38.38,0,0,0-.14.024.19.19,0,0,0-.1.081c-.024.038-.043.072-.06.1a.357.357,0,0,0-.032.131c-.006.057-.009.1-.009.121v3.459q0,.616.337.617" fill="#17014e"/>
            <line id="Línea_3837" data-name="Línea 3837" y2="6.328" transform="translate(100.04 69.789)" fill="none" stroke="#17014e" stroke-linecap="round" stroke-linejoin="round" stroke-width="1"/>
            <line id="Línea_3838" data-name="Línea 3838" y1="3.851" x2="3.375" transform="translate(98.352 71.027)" fill="none" stroke="#17014e" stroke-linecap="round" stroke-linejoin="round" stroke-width="1"/>
            <line id="Línea_3839" data-name="Línea 3839" y2="6.328" transform="translate(104.79 69.789)" fill="none" stroke="#17014e" stroke-linecap="round" stroke-linejoin="round" stroke-width="1"/>
            <line id="Línea_3840" data-name="Línea 3840" y1="3.851" x2="3.375" transform="translate(103.102 71.027)" fill="none" stroke="#17014e" stroke-linecap="round" stroke-linejoin="round" stroke-width="1"/>
            <line id="Línea_3841" data-name="Línea 3841" x2="4.75" transform="translate(100.04 72.953)" fill="none" stroke="#17014e" stroke-linecap="round" stroke-linejoin="round" stroke-width="1"/>
            <path id="Trazado_874500" data-name="Trazado 874500" d="M102.4,87.691a1.977,1.977,0,0,1-1.508-.556,2.091,2.091,0,0,1-.528-1.5V82.284a2.247,2.247,0,0,1,.51-1.555,2.316,2.316,0,0,1,3.043,0,2.248,2.248,0,0,1,.51,1.553v3.349a2.083,2.083,0,0,1-.534,1.493,1.954,1.954,0,0,1-1.493.565m0-1.493q.337,0,.337-.617v-3.4c0-.019,0-.051,0-.094a.81.81,0,0,0-.013-.1l-.024-.1a.257.257,0,0,0-.042-.091c-.018-.022-.037-.045-.059-.068a.191.191,0,0,0-.083-.051.394.394,0,0,0-.112-.015.38.38,0,0,0-.14.024.19.19,0,0,0-.1.081c-.024.038-.043.072-.06.1a.357.357,0,0,0-.032.131c-.006.057-.009.1-.009.121v3.459q0,.616.337.617" fill="#17014e"/>
          </g>
        </g>
      </g>
    </g>
  </g>
</svg>
