<svg xmlns="http://www.w3.org/2000/svg" xmlns:xlink="http://www.w3.org/1999/xlink" width="1329" height="9349.036" viewBox="0 0 1329 9349.036">
  <defs>
    <linearGradient id="linear-gradient" x1="0.5" x2="0.5" y2="1" gradientUnits="objectBoundingBox">
      <stop offset="0" stop-color="#f5f5f5"/>
      <stop offset="1" stop-color="#e6e6e6" stop-opacity="0"/>
    </linearGradient>
    <linearGradient id="linear-gradient-2" x1="0.5" x2="0.5" y2="1" gradientUnits="objectBoundingBox">
      <stop offset="0" stop-color="#fff"/>
      <stop offset="1" stop-color="#fff" stop-opacity="0"/>
    </linearGradient>
    <linearGradient id="linear-gradient-5" x1="0.5" x2="0.5" y2="1" gradientUnits="objectBoundingBox">
      <stop offset="0" stop-color="#f7f7f7"/>
      <stop offset="1" stop-color="#d8d8d8" stop-opacity="0"/>
    </linearGradient>
    <clipPath id="clip-path">
      <rect id="Rectángulo_402880" data-name="Rectángulo 402880" width="282.051" height="129" transform="translate(0)" fill="#5573c6" stroke="#707070" stroke-width="1"/>
    </clipPath>
    <clipPath id="clip-path-6">
      <rect id="Rectángulo_402885" data-name="Rectángulo 402885" width="282.051" height="129" transform="translate(0)" fill="#ffca00" stroke="#707070" stroke-width="1"/>
    </clipPath>
  </defs>
  <g id="Grupo_1103124" data-name="Grupo 1103124" transform="translate(19994 4305)">
    <rect id="Rectángulo_402905" data-name="Rectángulo 402905" width="1328" height="9321" transform="translate(-19993 -4305)" fill="none"/>
    <g id="Grupo_1103076" data-name="Grupo 1103076" transform="translate(-20129 179.386)">
      <rect id="Rectángulo_33858" data-name="Rectángulo 33858" width="1328" height="622" transform="translate(136 1500.614)" fill="url(#linear-gradient)"/>
      <rect id="Rectángulo_326955" data-name="Rectángulo 326955" width="1328" height="83" transform="translate(136 1500.614)" fill="url(#linear-gradient-2)"/>
    </g>
    <g id="Grupo_1103077" data-name="Grupo 1103077" transform="translate(-20129 2744.006)">
      <rect id="Rectángulo_33858-2" data-name="Rectángulo 33858" width="1328" height="799.416" transform="translate(136 1500.614)" fill="url(#linear-gradient)"/>
      <rect id="Rectángulo_326955-2" data-name="Rectángulo 326955" width="1328" height="83" transform="translate(136 1500.614)" fill="url(#linear-gradient-2)"/>
    </g>
    <g id="Grupo_1103078" data-name="Grupo 1103078" transform="translate(-20130 -2702.714)">
      <rect id="Rectángulo_33858-3" data-name="Rectángulo 33858" width="1328" height="868" transform="translate(136 1500.714)" fill="url(#linear-gradient-5)"/>
      <rect id="Rectángulo_326955-3" data-name="Rectángulo 326955" width="1328" height="83" transform="translate(136 1500.714)" fill="url(#linear-gradient-2)"/>
    </g>
    <g id="Grupo_1103105" data-name="Grupo 1103105" transform="translate(-18665.051 134.557) rotate(90)" opacity="0.25" clip-path="url(#clip-path)">
      <g id="Grupo_1103104" data-name="Grupo 1103104" transform="translate(6.559 -148.677)">
        <path id="Sustracción_38" data-name="Sustracción 38" d="M136.653,0a137.662,137.662,0,0,0-27.54,2.776A135.9,135.9,0,0,0,60.249,23.338a137.051,137.051,0,0,0-49.51,60.123,135.968,135.968,0,0,0-7.963,25.651,137.987,137.987,0,0,0,0,55.081,135.905,135.905,0,0,0,20.562,48.863,137.051,137.051,0,0,0,60.123,49.51,135.969,135.969,0,0,0,25.651,7.963,137.986,137.986,0,0,0,55.081,0,135.906,135.906,0,0,0,48.863-20.562,137.052,137.052,0,0,0,49.51-60.123,135.971,135.971,0,0,0,7.963-25.651,137.986,137.986,0,0,0,0-55.081,135.9,135.9,0,0,0-20.562-48.863,137.051,137.051,0,0,0-60.123-49.51,135.97,135.97,0,0,0-25.651-7.963A137.662,137.662,0,0,0,136.653,0Zm-.509,208.453A71.817,71.817,0,0,1,121.776,207a70.9,70.9,0,0,1-25.492-10.727,71.5,71.5,0,0,1-25.829-31.366A70.93,70.93,0,0,1,66.3,151.529a71.987,71.987,0,0,1,0-28.735A70.9,70.9,0,0,1,77.028,97.3a71.5,71.5,0,0,1,31.366-25.829,70.931,70.931,0,0,1,13.382-4.154,71.987,71.987,0,0,1,28.735,0A70.9,70.9,0,0,1,176,78.046a71.5,71.5,0,0,1,25.829,31.366,70.929,70.929,0,0,1,4.154,13.382,71.986,71.986,0,0,1,0,28.735,70.9,70.9,0,0,1-10.727,25.492,71.5,71.5,0,0,1-31.366,25.829A70.928,70.928,0,0,1,150.511,207,71.816,71.816,0,0,1,136.144,208.453Z" fill="#7f7aff"/>
      </g>
    </g>
    <g id="Grupo_1103107" data-name="Grupo 1103107" transform="translate(-18665.051 1829.004) rotate(90)" opacity="0.25" clip-path="url(#clip-path)">
      <g id="Grupo_1103106" data-name="Grupo 1103106" transform="translate(6.559 -148.677)">
        <path id="Sustracción_39" data-name="Sustracción 39" d="M136.653,0a137.662,137.662,0,0,0-27.54,2.776A135.9,135.9,0,0,0,60.249,23.338a137.051,137.051,0,0,0-49.51,60.123,135.968,135.968,0,0,0-7.963,25.651,137.987,137.987,0,0,0,0,55.081,135.905,135.905,0,0,0,20.562,48.863,137.051,137.051,0,0,0,60.123,49.51,135.969,135.969,0,0,0,25.651,7.963,137.986,137.986,0,0,0,55.081,0,135.906,135.906,0,0,0,48.863-20.562,137.052,137.052,0,0,0,49.51-60.123,135.971,135.971,0,0,0,7.963-25.651,137.986,137.986,0,0,0,0-55.081,135.9,135.9,0,0,0-20.562-48.863,137.051,137.051,0,0,0-60.123-49.51,135.97,135.97,0,0,0-25.651-7.963A137.662,137.662,0,0,0,136.653,0Zm-.509,208.453A71.817,71.817,0,0,1,121.776,207a70.9,70.9,0,0,1-25.492-10.727,71.5,71.5,0,0,1-25.829-31.366A70.93,70.93,0,0,1,66.3,151.529a71.987,71.987,0,0,1,0-28.735A70.9,70.9,0,0,1,77.028,97.3a71.5,71.5,0,0,1,31.366-25.829,70.931,70.931,0,0,1,13.382-4.154,71.987,71.987,0,0,1,28.735,0A70.9,70.9,0,0,1,176,78.046a71.5,71.5,0,0,1,25.829,31.366,70.929,70.929,0,0,1,4.154,13.382,71.986,71.986,0,0,1,0,28.735,70.9,70.9,0,0,1-10.727,25.492,71.5,71.5,0,0,1-31.366,25.829A70.928,70.928,0,0,1,150.511,207,71.816,71.816,0,0,1,136.144,208.453Z" fill="#7f7aff"/>
      </g>
    </g>
    <g id="Grupo_1103109" data-name="Grupo 1103109" transform="translate(-18665.051 4382.283) rotate(90)" opacity="0.25" clip-path="url(#clip-path)">
      <g id="Grupo_1103108" data-name="Grupo 1103108" transform="translate(6.559 -148.677)">
        <path id="Sustracción_40" data-name="Sustracción 40" d="M136.653,0a137.662,137.662,0,0,0-27.54,2.776A135.9,135.9,0,0,0,60.249,23.338a137.051,137.051,0,0,0-49.51,60.123,135.968,135.968,0,0,0-7.963,25.651,137.987,137.987,0,0,0,0,55.081,135.905,135.905,0,0,0,20.562,48.863,137.051,137.051,0,0,0,60.123,49.51,135.969,135.969,0,0,0,25.651,7.963,137.986,137.986,0,0,0,55.081,0,135.906,135.906,0,0,0,48.863-20.562,137.052,137.052,0,0,0,49.51-60.123,135.971,135.971,0,0,0,7.963-25.651,137.986,137.986,0,0,0,0-55.081,135.9,135.9,0,0,0-20.562-48.863,137.051,137.051,0,0,0-60.123-49.51,135.97,135.97,0,0,0-25.651-7.963A137.662,137.662,0,0,0,136.653,0Zm-.509,208.453A71.817,71.817,0,0,1,121.776,207a70.9,70.9,0,0,1-25.492-10.727,71.5,71.5,0,0,1-25.829-31.366A70.93,70.93,0,0,1,66.3,151.529a71.987,71.987,0,0,1,0-28.735A70.9,70.9,0,0,1,77.028,97.3a71.5,71.5,0,0,1,31.366-25.829,70.931,70.931,0,0,1,13.382-4.154,71.987,71.987,0,0,1,28.735,0A70.9,70.9,0,0,1,176,78.046a71.5,71.5,0,0,1,25.829,31.366,70.929,70.929,0,0,1,4.154,13.382,71.986,71.986,0,0,1,0,28.735,70.9,70.9,0,0,1-10.727,25.492,71.5,71.5,0,0,1-31.366,25.829A70.928,70.928,0,0,1,150.511,207,71.816,71.816,0,0,1,136.144,208.453Z" fill="#7f7aff"/>
      </g>
    </g>
    <g id="Grupo_1103111" data-name="Grupo 1103111" transform="translate(-18665.051 -916.025) rotate(90)" opacity="0.25" clip-path="url(#clip-path)">
      <g id="Grupo_1103110" data-name="Grupo 1103110" transform="translate(6.559 -148.677)">
        <path id="Sustracción_41" data-name="Sustracción 41" d="M136.653,0a137.662,137.662,0,0,0-27.54,2.776A135.9,135.9,0,0,0,60.249,23.338a137.051,137.051,0,0,0-49.51,60.123,135.968,135.968,0,0,0-7.963,25.651,137.987,137.987,0,0,0,0,55.081,135.905,135.905,0,0,0,20.562,48.863,137.051,137.051,0,0,0,60.123,49.51,135.969,135.969,0,0,0,25.651,7.963,137.986,137.986,0,0,0,55.081,0,135.906,135.906,0,0,0,48.863-20.562,137.052,137.052,0,0,0,49.51-60.123,135.971,135.971,0,0,0,7.963-25.651,137.986,137.986,0,0,0,0-55.081,135.9,135.9,0,0,0-20.562-48.863,137.051,137.051,0,0,0-60.123-49.51,135.97,135.97,0,0,0-25.651-7.963A137.662,137.662,0,0,0,136.653,0Zm-.509,208.453A71.817,71.817,0,0,1,121.776,207a70.9,70.9,0,0,1-25.492-10.727,71.5,71.5,0,0,1-25.829-31.366A70.93,70.93,0,0,1,66.3,151.529a71.987,71.987,0,0,1,0-28.735A70.9,70.9,0,0,1,77.028,97.3a71.5,71.5,0,0,1,31.366-25.829,70.931,70.931,0,0,1,13.382-4.154,71.987,71.987,0,0,1,28.735,0A70.9,70.9,0,0,1,176,78.046a71.5,71.5,0,0,1,25.829,31.366,70.929,70.929,0,0,1,4.154,13.382,71.986,71.986,0,0,1,0,28.735,70.9,70.9,0,0,1-10.727,25.492,71.5,71.5,0,0,1-31.366,25.829A70.928,70.928,0,0,1,150.511,207,71.816,71.816,0,0,1,136.144,208.453Z" fill="#7f7aff"/>
      </g>
    </g>
    <g id="Grupo_1103113" data-name="Grupo 1103113" transform="translate(-18665.051 -3756.025) rotate(90)" opacity="0.25" clip-path="url(#clip-path)">
      <g id="Grupo_1103112" data-name="Grupo 1103112" transform="translate(6.559 -148.677)">
        <path id="Sustracción_42" data-name="Sustracción 42" d="M136.653,0a137.662,137.662,0,0,0-27.54,2.776A135.9,135.9,0,0,0,60.249,23.338a137.051,137.051,0,0,0-49.51,60.123,135.968,135.968,0,0,0-7.963,25.651,137.987,137.987,0,0,0,0,55.081,135.905,135.905,0,0,0,20.562,48.863,137.051,137.051,0,0,0,60.123,49.51,135.969,135.969,0,0,0,25.651,7.963,137.986,137.986,0,0,0,55.081,0,135.906,135.906,0,0,0,48.863-20.562,137.052,137.052,0,0,0,49.51-60.123,135.971,135.971,0,0,0,7.963-25.651,137.986,137.986,0,0,0,0-55.081,135.9,135.9,0,0,0-20.562-48.863,137.051,137.051,0,0,0-60.123-49.51,135.97,135.97,0,0,0-25.651-7.963A137.662,137.662,0,0,0,136.653,0Zm-.509,208.453A71.817,71.817,0,0,1,121.776,207a70.9,70.9,0,0,1-25.492-10.727,71.5,71.5,0,0,1-25.829-31.366A70.93,70.93,0,0,1,66.3,151.529a71.987,71.987,0,0,1,0-28.735A70.9,70.9,0,0,1,77.028,97.3a71.5,71.5,0,0,1,31.366-25.829,70.931,70.931,0,0,1,13.382-4.154,71.987,71.987,0,0,1,28.735,0A70.9,70.9,0,0,1,176,78.046a71.5,71.5,0,0,1,25.829,31.366,70.929,70.929,0,0,1,4.154,13.382,71.986,71.986,0,0,1,0,28.735,70.9,70.9,0,0,1-10.727,25.492,71.5,71.5,0,0,1-31.366,25.829A70.928,70.928,0,0,1,150.511,207,71.816,71.816,0,0,1,136.144,208.453Z" fill="#7f7aff"/>
      </g>
    </g>
    <g id="Grupo_1103115" data-name="Grupo 1103115" transform="translate(-19993.051 1525.311) rotate(-90)" opacity="0.25" clip-path="url(#clip-path-6)">
      <g id="Grupo_1103114" data-name="Grupo 1103114" transform="translate(6.559 -148.677)">
        <path id="Sustracción_43" data-name="Sustracción 43" d="M136.653,0a137.662,137.662,0,0,0-27.54,2.776A135.9,135.9,0,0,0,60.249,23.338a137.051,137.051,0,0,0-49.51,60.123,135.968,135.968,0,0,0-7.963,25.651,137.987,137.987,0,0,0,0,55.081,135.905,135.905,0,0,0,20.562,48.863,137.051,137.051,0,0,0,60.123,49.51,135.969,135.969,0,0,0,25.651,7.963,137.986,137.986,0,0,0,55.081,0,135.906,135.906,0,0,0,48.863-20.562,137.052,137.052,0,0,0,49.51-60.123,135.971,135.971,0,0,0,7.963-25.651,137.986,137.986,0,0,0,0-55.081,135.9,135.9,0,0,0-20.562-48.863,137.051,137.051,0,0,0-60.123-49.51,135.97,135.97,0,0,0-25.651-7.963A137.662,137.662,0,0,0,136.653,0Zm-.509,208.453A71.817,71.817,0,0,1,121.776,207a70.9,70.9,0,0,1-25.492-10.727,71.5,71.5,0,0,1-25.829-31.366A70.93,70.93,0,0,1,66.3,151.529a71.987,71.987,0,0,1,0-28.735A70.9,70.9,0,0,1,77.028,97.3a71.5,71.5,0,0,1,31.366-25.829,70.931,70.931,0,0,1,13.382-4.154,71.987,71.987,0,0,1,28.735,0A70.9,70.9,0,0,1,176,78.046a71.5,71.5,0,0,1,25.829,31.366,70.929,70.929,0,0,1,4.154,13.382,71.986,71.986,0,0,1,0,28.735,70.9,70.9,0,0,1-10.727,25.492,71.5,71.5,0,0,1-31.366,25.829A70.928,70.928,0,0,1,150.511,207,71.816,71.816,0,0,1,136.144,208.453Z" fill="#f0dcc0"/>
      </g>
    </g>
    <g id="Grupo_1103117" data-name="Grupo 1103117" transform="translate(-19993.051 2434.805) rotate(-90)" opacity="0.25" clip-path="url(#clip-path-6)">
      <g id="Grupo_1103116" data-name="Grupo 1103116" transform="translate(6.559 -148.677)">
        <path id="Sustracción_44" data-name="Sustracción 44" d="M136.653,0a137.662,137.662,0,0,0-27.54,2.776A135.9,135.9,0,0,0,60.249,23.338a137.051,137.051,0,0,0-49.51,60.123,135.968,135.968,0,0,0-7.963,25.651,137.987,137.987,0,0,0,0,55.081,135.905,135.905,0,0,0,20.562,48.863,137.051,137.051,0,0,0,60.123,49.51,135.969,135.969,0,0,0,25.651,7.963,137.986,137.986,0,0,0,55.081,0,135.906,135.906,0,0,0,48.863-20.562,137.052,137.052,0,0,0,49.51-60.123,135.971,135.971,0,0,0,7.963-25.651,137.986,137.986,0,0,0,0-55.081,135.9,135.9,0,0,0-20.562-48.863,137.051,137.051,0,0,0-60.123-49.51,135.97,135.97,0,0,0-25.651-7.963A137.662,137.662,0,0,0,136.653,0Zm-.509,208.453A71.817,71.817,0,0,1,121.776,207a70.9,70.9,0,0,1-25.492-10.727,71.5,71.5,0,0,1-25.829-31.366A70.93,70.93,0,0,1,66.3,151.529a71.987,71.987,0,0,1,0-28.735A70.9,70.9,0,0,1,77.028,97.3a71.5,71.5,0,0,1,31.366-25.829,70.931,70.931,0,0,1,13.382-4.154,71.987,71.987,0,0,1,28.735,0A70.9,70.9,0,0,1,176,78.046a71.5,71.5,0,0,1,25.829,31.366,70.929,70.929,0,0,1,4.154,13.382,71.986,71.986,0,0,1,0,28.735,70.9,70.9,0,0,1-10.727,25.492,71.5,71.5,0,0,1-31.366,25.829A70.928,70.928,0,0,1,150.511,207,71.816,71.816,0,0,1,136.144,208.453Z" fill="#f0dcc0"/>
      </g>
    </g>
    <g id="Grupo_1103119" data-name="Grupo 1103119" transform="translate(-19993.051 4957.086) rotate(-90)" opacity="0.25" clip-path="url(#clip-path-6)">
      <g id="Grupo_1103118" data-name="Grupo 1103118" transform="translate(6.559 -148.677)">
        <path id="Sustracción_45" data-name="Sustracción 45" d="M136.653,0a137.662,137.662,0,0,0-27.54,2.776A135.9,135.9,0,0,0,60.249,23.338a137.051,137.051,0,0,0-49.51,60.123,135.968,135.968,0,0,0-7.963,25.651,137.987,137.987,0,0,0,0,55.081,135.905,135.905,0,0,0,20.562,48.863,137.051,137.051,0,0,0,60.123,49.51,135.969,135.969,0,0,0,25.651,7.963,137.986,137.986,0,0,0,55.081,0,135.906,135.906,0,0,0,48.863-20.562,137.052,137.052,0,0,0,49.51-60.123,135.971,135.971,0,0,0,7.963-25.651,137.986,137.986,0,0,0,0-55.081,135.9,135.9,0,0,0-20.562-48.863,137.051,137.051,0,0,0-60.123-49.51,135.97,135.97,0,0,0-25.651-7.963A137.662,137.662,0,0,0,136.653,0Zm-.509,208.453A71.817,71.817,0,0,1,121.776,207a70.9,70.9,0,0,1-25.492-10.727,71.5,71.5,0,0,1-25.829-31.366A70.93,70.93,0,0,1,66.3,151.529a71.987,71.987,0,0,1,0-28.735A70.9,70.9,0,0,1,77.028,97.3a71.5,71.5,0,0,1,31.366-25.829,70.931,70.931,0,0,1,13.382-4.154,71.987,71.987,0,0,1,28.735,0A70.9,70.9,0,0,1,176,78.046a71.5,71.5,0,0,1,25.829,31.366,70.929,70.929,0,0,1,4.154,13.382,71.986,71.986,0,0,1,0,28.735,70.9,70.9,0,0,1-10.727,25.492,71.5,71.5,0,0,1-31.366,25.829A70.928,70.928,0,0,1,150.511,207,71.816,71.816,0,0,1,136.144,208.453Z" fill="#f0dcc0"/>
      </g>
    </g>
    <g id="Grupo_1103121" data-name="Grupo 1103121" transform="translate(-19993.051 -338.359) rotate(-90)" opacity="0.25" clip-path="url(#clip-path-6)">
      <g id="Grupo_1103120" data-name="Grupo 1103120" transform="translate(6.559 -148.677)">
        <path id="Sustracción_46" data-name="Sustracción 46" d="M136.653,0a137.662,137.662,0,0,0-27.54,2.776A135.9,135.9,0,0,0,60.249,23.338a137.051,137.051,0,0,0-49.51,60.123,135.968,135.968,0,0,0-7.963,25.651,137.987,137.987,0,0,0,0,55.081,135.905,135.905,0,0,0,20.562,48.863,137.051,137.051,0,0,0,60.123,49.51,135.969,135.969,0,0,0,25.651,7.963,137.986,137.986,0,0,0,55.081,0,135.906,135.906,0,0,0,48.863-20.562,137.052,137.052,0,0,0,49.51-60.123,135.971,135.971,0,0,0,7.963-25.651,137.986,137.986,0,0,0,0-55.081,135.9,135.9,0,0,0-20.562-48.863,137.051,137.051,0,0,0-60.123-49.51,135.97,135.97,0,0,0-25.651-7.963A137.662,137.662,0,0,0,136.653,0Zm-.509,208.453A71.817,71.817,0,0,1,121.776,207a70.9,70.9,0,0,1-25.492-10.727,71.5,71.5,0,0,1-25.829-31.366A70.93,70.93,0,0,1,66.3,151.529a71.987,71.987,0,0,1,0-28.735A70.9,70.9,0,0,1,77.028,97.3a71.5,71.5,0,0,1,31.366-25.829,70.931,70.931,0,0,1,13.382-4.154,71.987,71.987,0,0,1,28.735,0A70.9,70.9,0,0,1,176,78.046a71.5,71.5,0,0,1,25.829,31.366,70.929,70.929,0,0,1,4.154,13.382,71.986,71.986,0,0,1,0,28.735,70.9,70.9,0,0,1-10.727,25.492,71.5,71.5,0,0,1-31.366,25.829A70.928,70.928,0,0,1,150.511,207,71.816,71.816,0,0,1,136.144,208.453Z" fill="#f0dcc0"/>
      </g>
    </g>
    <g id="Grupo_1103123" data-name="Grupo 1103123" transform="translate(-19993.051 -3177.736) rotate(-90)" opacity="0.25" clip-path="url(#clip-path-6)">
      <g id="Grupo_1103122" data-name="Grupo 1103122" transform="translate(6.559 -148.677)">
        <path id="Sustracción_47" data-name="Sustracción 47" d="M136.653,0a137.662,137.662,0,0,0-27.54,2.776A135.9,135.9,0,0,0,60.249,23.338a137.051,137.051,0,0,0-49.51,60.123,135.968,135.968,0,0,0-7.963,25.651,137.987,137.987,0,0,0,0,55.081,135.905,135.905,0,0,0,20.562,48.863,137.051,137.051,0,0,0,60.123,49.51,135.969,135.969,0,0,0,25.651,7.963,137.986,137.986,0,0,0,55.081,0,135.906,135.906,0,0,0,48.863-20.562,137.052,137.052,0,0,0,49.51-60.123,135.971,135.971,0,0,0,7.963-25.651,137.986,137.986,0,0,0,0-55.081,135.9,135.9,0,0,0-20.562-48.863,137.051,137.051,0,0,0-60.123-49.51,135.97,135.97,0,0,0-25.651-7.963A137.662,137.662,0,0,0,136.653,0Zm-.509,208.453A71.817,71.817,0,0,1,121.776,207a70.9,70.9,0,0,1-25.492-10.727,71.5,71.5,0,0,1-25.829-31.366A70.93,70.93,0,0,1,66.3,151.529a71.987,71.987,0,0,1,0-28.735A70.9,70.9,0,0,1,77.028,97.3a71.5,71.5,0,0,1,31.366-25.829,70.931,70.931,0,0,1,13.382-4.154,71.987,71.987,0,0,1,28.735,0A70.9,70.9,0,0,1,176,78.046a71.5,71.5,0,0,1,25.829,31.366,70.929,70.929,0,0,1,4.154,13.382,71.986,71.986,0,0,1,0,28.735,70.9,70.9,0,0,1-10.727,25.492,71.5,71.5,0,0,1-31.366,25.829A70.928,70.928,0,0,1,150.511,207,71.816,71.816,0,0,1,136.144,208.453Z" fill="#f0dcc0"/>
      </g>
    </g>
  </g>
</svg>
