<svg id="img-18" xmlns="http://www.w3.org/2000/svg" xmlns:xlink="http://www.w3.org/1999/xlink" width="100.092" height="99.724" viewBox="0 0 100.092 99.724">
  <defs>
    <clipPath id="clip-path">
      <rect id="Rectángulo_402671" data-name="Rectángulo 402671" width="100.092" height="99.724" fill="none"/>
    </clipPath>
  </defs>
  <g id="Grupo_1102620" data-name="Grupo 1102620" clip-path="url(#clip-path)">
    <path id="Trazado_875394" data-name="Trazado 875394" d="M.1,44.972v-.4a5.462,5.462,0,0,0,0-3.42v-.2a10.131,10.131,0,0,0,.517-2.481c.766-2.946,2.111-3.81,5.083-3.155.014-.235.042-.464.039-.692-.052-3.652-.01-7.3.2-10.949.4-6.834,3.015-12.622,8.546-16.782C22.918.546,32.49-1.065,42.733.629a29.751,29.751,0,0,1,9.418,3.554Q54.478,5.757,56.8,7.332c.29.2.494.279.678-.159a12.876,12.876,0,0,1,4.631-5.426A14.556,14.556,0,0,1,67.632.04a18.689,18.689,0,0,1,6.292,1.067A34.657,34.657,0,0,1,84.19,5.532a21.824,21.824,0,0,1,10.084,16.46,106.581,106.581,0,0,1,.382,12.254c0,.35-.126.721.087,1.055,2.82-.655,4.26.227,4.971,3.019a24.278,24.278,0,0,1,.346,7.3,16.292,16.292,0,0,1-5.77,12.253,3.96,3.96,0,0,0-1.635,3.75,18.916,18.916,0,0,1-2.428,10.914,25.227,25.227,0,0,1-4.82,5.76,3.159,3.159,0,0,0-1.121,2.623c.079,3.116.028,6.235.027,9.353,0,1.475.042,2.952-.019,4.425a4.889,4.889,0,0,1-3.829,4.8c-.132.037-.259.041-.291.2h-.2c-.2-.358-.538-.193-.811-.193q-13.819-.012-27.637,0c-.311,0-.679-.157-.926.193H49.591c-.251-.34-.617-.192-.929-.193q-13.869-.016-27.739-.01c-.248,0-.548-.129-.707.2h-.2c-.062-.068-.11-.169-.187-.2-2.82-1.152-3.75-2.532-3.751-5.59,0-3.82-.138-7.646.052-11.456a5.967,5.967,0,0,0-2.175-5.232,18.553,18.553,0,0,1-5.135-7.566,24.332,24.332,0,0,1-1.08-9.612A1.237,1.237,0,0,0,7.2,58.786,16.46,16.46,0,0,1,.441,47.067c-.093-.7.091-1.452-.345-2.1m44.1-40.489a.406.406,0,0,0-.444-.143.178.178,0,0,0-.142-.042.443.443,0,0,0-.458-.142c-.291-.078-.577-.179-.873-.232A33.934,33.934,0,0,0,21.1,6.526C15.68,9.118,11.8,13.115,10.065,18.994a31.1,31.1,0,0,0-.928,8.161c-.14,6.1-.284,12.226.871,18.245A59.144,59.144,0,0,1,11,61.392a19.2,19.2,0,0,0,.249,4.51A15.149,15.149,0,0,0,15.9,74.5a49.226,49.226,0,0,1,7.557,9.361,29.764,29.764,0,0,0,2.379,3.362,5.767,5.767,0,0,0,3.95,2.371,80.865,80.865,0,0,0,9.945.04,4.986,4.986,0,0,0,3.527-1.18,15.92,15.92,0,0,0,3.569-4.433,49.921,49.921,0,0,1,7.59-9.437,13.941,13.941,0,0,0,4-6.95c.631-2.751.254-5.528.179-8.3a1.138,1.138,0,0,0-.387-.792q-1.188-1.149-2.371-2.3-4.886-4.917-9.771-9.834c-1.339-1.35-1.127-2.491.61-3.243,2.639-1.142,5.286-2.268,7.928-3.4,1.409-.6,1.328-.561.562-1.924a2.4,2.4,0,0,0-2.5-1.315c-3.113.085-6.231.066-9.346.012a9.927,9.927,0,0,1-9.583-8.186A9.757,9.757,0,0,1,40,17.365c1.421-.5,2.26-1,1.989-2.6a.907.907,0,0,1,.058-.294A10.1,10.1,0,0,1,48.17,6.924c.351-.117.775-.086,1.066-.532a18.69,18.69,0,0,0-5.044-1.913ZM55.021,50.611l3.464,3.3c0-1.714.017-3.4-.008-5.092a3.087,3.087,0,0,1,.458-1.8c.451-.21.892-.446,1.355-.627,2.265-.881,4.536-1.748,6.805-2.62,1.189-.42,2.374-.852,3.57-1.254.46-.155.405-.382.228-.733q-2.425-4.816-4.828-9.643c-.152-.305-.294-.594-.721-.567a16.976,16.976,0,0,0-2.49.082H55.011c1.589,2.388,3.111,4.664,4.621,6.947.921,1.392.636,2.326-.909,3.007-1.038.458-2.084.9-3.126,1.346l-5.575,2.4,5,5.259M77.1,33.15c4.183.112,7.306-4.372,5.974-8.581-.84-2.655-3.476-4.647-5.946-4.494a2.531,2.531,0,0,1-2.022-1.23,3.434,3.434,0,0,1,.483-1.8,8.485,8.485,0,0,0-.3-10.357,7.636,7.636,0,0,0-5.6-3.115,3.484,3.484,0,0,0-1.477-.226,8.6,8.6,0,0,0-8.3,7.265c-.173.836-.406,1.554-1.331,1.811-.893.249-1.439-.269-2-.835a6.608,6.608,0,0,0-11.251,5.691c.308,2.051-.161,2.632-2.2,2.723a6.649,6.649,0,0,0-6.207,6.145,6.543,6.543,0,0,0,5.5,6.963c3,.4,6.024.073,9.036.166.708.022.422-.367.337-.7a3.291,3.291,0,0,1,3.271-4.3c3.553-.025,7.106-.016,10.658,0a3.208,3.208,0,0,1,3.009,1.829c.451.86.889,1.727,1.331,2.591.136.266.232.577.616.567,2.139-.055,4.283.149,6.419-.115M69.7,89.628a4.35,4.35,0,0,0,2.427-.472A8.562,8.562,0,0,0,75.638,85.8c2.613-3.89,5.157-7.82,8.631-11.048,4.318-4.013,5.553-9.095,5.068-14.808a39.02,39.02,0,0,1,.206-9.415c.511-3.232,1.222-6.439,1.459-9.707a129.005,129.005,0,0,0,.06-17.36A18.965,18.965,0,0,0,81.967,8.1a8.446,8.446,0,0,0-2.653-1.348l.654,1.6a11.94,11.94,0,0,1-.146,7.687c-.3.787-.118,1.046.638,1.336a9.932,9.932,0,0,1-1.672,18.976,29.885,29.885,0,0,1-5.512.2c-1.283.033-1.284.008-.73,1.114.78,1.556,1.586,3.1,2.332,4.672a1.651,1.651,0,0,1-1,2.5c-.308.131-.621.247-.935.365L62.6,49.061c-.414.155-.782.281-.768.876.083,3.549-.176,7.107.169,10.648.653,6.721-.866,12.664-6.144,17.235a4.885,4.885,0,0,0-1.646,4.04c-.042,2.209.213,4.153,1.93,5.742a6.151,6.151,0,0,0,3.818,2.025q4.868.234,9.743,0M19.417,84.145c0,3.541-.025,7.082.016,10.623.011,1.02.737,1.526,1.965,1.526q13.771.006,27.543,0c1.473,0,2.038-.585,2.045-2.091.009-1.91,0-3.82,0-5.729v-4.72c-1.257,1.882-2.292,3.557-3.495,5.12a10.032,10.032,0,0,1-8.474,4.2c-2.513-.029-5.026-.04-7.539,0A10.088,10.088,0,0,1,22.9,88.882c-1.189-1.537-2.19-3.2-3.481-4.737m61.559.038-.185-.066c-.858,1.266-1.72,2.529-2.573,3.8a10.612,10.612,0,0,1-9.8,5.165c-2.475-.106-4.957-.01-7.437-.028A9.47,9.47,0,0,1,55.089,91.1c-.209-.162-.387-.491-.875-.3,0,1.568.046,3.172-.025,4.77-.025.561.015.736.623.734,8.141-.02,16.281-.009,24.422-.02a1.557,1.557,0,0,0,1.733-1.659c.023-3.481.009-6.962.009-10.443M7.945,55.13c-.113-1.388-.146-2.513-.3-3.62C7.123,47.9,6.285,44.339,6.084,40.685A2.4,2.4,0,0,0,5.1,38.894c-.8-.648-1.194-.558-1.307.437-.4,3.546-.507,7.088.711,10.524A12.67,12.67,0,0,0,7.945,55.13M92.47,55.1a12.843,12.843,0,0,0,2.969-4.1,16.928,16.928,0,0,0,1.394-6.83,20.937,20.937,0,0,0-.287-4.9c-.167-.892-.463-.972-1.2-.432a2.663,2.663,0,0,0-1.078,2.162,50.318,50.318,0,0,1-.951,7.049,45.318,45.318,0,0,0-.85,7.053" transform="translate(-0.077 0)" fill="#020202"/>
    <path id="Trazado_875396" data-name="Trazado 875396" d="M99.85,493.394c.159-.332.459-.2.707-.2q13.869,0,27.739.01c.313,0,.678-.147.929.192Z" transform="translate(-79.711 -393.697)" fill="#444"/>
    <path id="Trazado_875397" data-name="Trazado 875397" d="M250.479,493.379c.248-.349.615-.192.926-.192q13.819-.014,27.637,0c.274,0,.613-.165.811.193Z" transform="translate(-199.959 -393.683)" fill="#444"/>
    <path id="Trazado_875398" data-name="Trazado 875398" d="M.1,204.019a5.459,5.459,0,0,1,0,3.42Z" transform="translate(-0.077 -162.869)" fill="#5f7c8a"/>
    <path id="Trazado_875399" data-name="Trazado 875399" d="M214.014,20.707a.4.4,0,0,1-.458-.141.444.444,0,0,1,.458.141" transform="translate(-170.483 -16.409)" fill="#c21d1d"/>
    <path id="Trazado_875400" data-name="Trazado 875400" d="M216.971,21.619a.343.343,0,0,1-.445-.143.406.406,0,0,1,.445.143" transform="translate(-172.854 -17.137)" fill="#c21d1d"/>
  </g>
</svg>
