<svg xmlns="http://www.w3.org/2000/svg" xmlns:xlink="http://www.w3.org/1999/xlink" width="166" height="166" viewBox="0 0 166 166">
  <defs>
    <clipPath id="clip-path">
      <rect id="Rectángulo_402649" data-name="Rectángulo 402649" width="94.949" height="94.941" fill="none"/>
    </clipPath>
  </defs>
  <g id="img-11" transform="translate(8686 2372.124)">
    <g id="Grupo_1103072" data-name="Grupo 1103072" transform="translate(-8990 -11747.124)">
      <circle id="Elipse_8441" data-name="Elipse 8441" cx="83" cy="83" r="83" transform="translate(304 9375)" fill="#fff" opacity="0.45"/>
      <circle id="Elipse_8442" data-name="Elipse 8442" cx="67" cy="67" r="67" transform="translate(320 9391)" fill="#fff"/>
    </g>
    <g id="Grupo_1103073" data-name="Grupo 1103073" transform="translate(-8649.174 -2336.594)">
      <g id="Grupo_1102598" data-name="Grupo 1102598" clip-path="url(#clip-path)">
        <path id="Trazado_875300" data-name="Trazado 875300" d="M28.284,36.851c-.3.172-.478.281-.663.384q-8.252,4.573-16.506,9.141c-.447.247-.832.515-.821,1.1a1.256,1.256,0,0,0,.819,1.1q8.26,4.561,16.509,9.141c.191.106.375.227.636.387-.314.182-.528.311-.747.431q-8.2,4.542-16.41,9.08c-.449.248-.813.53-.808,1.108a1.2,1.2,0,0,0,.785,1.062q4.55,2.516,9.1,5.036,9.969,5.515,19.938,11.029,4.37,2.419,8.727,4.86a1.5,1.5,0,0,0,1.693-.034c.477-.3.992-.54,1.486-.813Q70.139,79.827,88.258,69.8a1.226,1.226,0,0,0,.806-1.108,1.2,1.2,0,0,0-.786-1.06q-8.36-4.62-16.712-9.254c-.138-.077-.264-.176-.46-.308,2.134-1.185,4.174-2.32,6.216-3.452q5.493-3.043,10.991-6.079a1.2,1.2,0,0,0,.759-1.082,1.131,1.131,0,0,0-.692-1q-6.6-3.643-13.188-7.295c-1.341-.743-2.679-1.492-4.069-2.267a2.389,2.389,0,0,1,.267-.217c1.239-.7,2.478-1.393,3.722-2.081q6.647-3.673,13.3-7.336a1.1,1.1,0,0,0,.662-1.017,1.131,1.131,0,0,0-.677-1.008q-5.091-2.8-10.17-5.632Q64.378,11.926,50.534,4.248a1.577,1.577,0,0,0-1.7-.008q-7.191,4.015-14.4,7.994-11.649,6.458-23.3,12.912c-.45.249-.834.514-.838,1.086s.355.856.81,1.107q7.34,4.051,14.671,8.119c.8.441,1.592.885,2.505,1.393M94.948,7.177q0-2.864,0-5.727C94.948.324,94.63,0,93.483,0q-5.348,0-10.7,0c-.409,0-.82-.018-1.227.01a1.01,1.01,0,0,0-.948,1,1.01,1.01,0,0,0,.869,1.07,3.291,3.291,0,0,0,.524.024q4.968-.011,9.935-.026c.908,0,.9-.007.9.886,0,3.351-.013,6.7.013,10.052a1.451,1.451,0,0,0,.367,1.028,1.49,1.49,0,0,0,1.117.162c.46-.1.611-.545.61-1.016q-.007-3.01,0-6.02M7.174,94.94v0q3.04,0,6.08,0a.88.88,0,0,0,.961-.6,1.386,1.386,0,0,0-.124-1.069,1.546,1.546,0,0,0-1.066-.42q-5.115-.042-10.231,0c-.519,0-.71-.093-.7-.667.032-3.468.025-6.937.019-10.406A1.041,1.041,0,0,0,1.026,80.6a1.031,1.031,0,0,0-1.018,1.12Q0,87.714.013,93.706c0,.876.385,1.231,1.256,1.233q2.953,0,5.905,0M7.239,0V.018c-1.967,0-3.934,0-5.9,0C.372.014.022.331.019,1.289Q0,6.43.005,11.572c0,.6-.017,1.208.013,1.811a1.023,1.023,0,0,0,1.054.962,1,1,0,0,0,1.016-.928c.031-.309.025-.622.025-.934,0-3.233.013-6.466-.012-9.7,0-.551.178-.715.7-.682.582.036,1.168.009,1.752.008,2.844,0,5.687.011,8.531-.022a1.425,1.425,0,0,0,1.008-.407,1.434,1.434,0,0,0,.122-1.07A.871.871,0,0,0,13.257,0q-3.009,0-6.018,0M87.779,94.94v-.016c2.025,0,4.051.007,6.076,0a.987.987,0,0,0,1.085-1.09c.007-.409,0-.818,0-1.226q0-5.434,0-10.868a1.05,1.05,0,0,0-1.235-1.123,1.08,1.08,0,0,0-.863,1.2c-.005,3.428-.019,6.856.007,10.283,0,.6-.178.75-.76.746-3.408-.025-6.817-.014-10.226-.009-.8,0-1.255.392-1.254,1.056s.461,1.046,1.264,1.047q2.951.005,5.9,0" transform="translate(0 0)" fill="#fff"/>
        <path id="Trazado_875301" data-name="Trazado 875301" d="M106,67.022c-.914-.508-1.709-.952-2.505-1.393q-7.334-4.062-14.671-8.119c-.455-.251-.814-.54-.81-1.107s.389-.837.838-1.086q11.654-6.449,23.3-12.912,7.2-3.993,14.4-7.994a1.577,1.577,0,0,1,1.7.008q13.84,7.686,27.691,15.352,5.084,2.817,10.17,5.632a1.13,1.13,0,0,1,.678,1.008,1.1,1.1,0,0,1-.662,1.017q-6.653,3.661-13.3,7.336c-1.244.687-2.482,1.385-3.722,2.081a2.383,2.383,0,0,0-.268.217c1.39.775,2.728,1.524,4.069,2.267q6.592,3.651,13.188,7.295a1.131,1.131,0,0,1,.692,1,1.2,1.2,0,0,1-.759,1.082q-5.5,3.031-10.991,6.079c-2.042,1.131-4.083,2.267-6.216,3.452.2.132.322.231.46.308Q157.64,93.175,166,97.8a1.2,1.2,0,0,1,.786,1.06,1.226,1.226,0,0,1-.806,1.108q-18.122,10.027-36.237,20.065c-.494.274-1.009.513-1.486.813a1.5,1.5,0,0,1-1.693.034q-4.352-2.45-8.727-4.859Q107.869,110.5,97.9,104.99q-4.549-2.517-9.1-5.036a1.2,1.2,0,0,1-.785-1.062c0-.578.359-.86.808-1.108q8.207-4.536,16.41-9.08c.218-.121.432-.249.747-.431-.262-.16-.445-.281-.636-.387q-8.252-4.574-16.509-9.141a1.257,1.257,0,0,1-.819-1.1c-.011-.581.374-.848.821-1.1q8.256-4.565,16.506-9.141c.185-.1.367-.212.663-.384M91.323,56.41c.261.158.436.272.618.372l25.6,14.178c3.049,1.689,6.1,3.366,9.135,5.084a1.32,1.32,0,0,0,1.479-.029q16.827-9.342,33.671-18.654c.521-.289,1.036-.589,1.639-.932-.251-.155-.408-.26-.573-.352q-10.6-5.877-21.2-11.751c-4.512-2.5-9.03-4.993-13.529-7.519a1.36,1.36,0,0,0-1.528,0q-8.281,4.637-16.591,9.224-8.25,4.574-16.5,9.141c-.712.394-1.421.794-2.214,1.238m.059,21.224c.228.146.365.244.512.325Q102.6,83.9,113.317,89.829q6.827,3.78,13.654,7.559a.752.752,0,0,0,.851.011c1.967-1.114,3.947-2.2,5.925-3.3l28.745-15.912c.282-.156.556-.324.9-.524-.187-.131-.287-.216-.4-.279q-7.95-4.408-15.9-8.822a.954.954,0,0,0-1.066.012q-8.891,4.942-17.795,9.862a1.513,1.513,0,0,1-1.646.014c-.823-.481-1.668-.926-2.5-1.388q-7.671-4.246-15.336-8.5a.95.95,0,0,0-1.065.022q-6.916,3.853-13.851,7.671c-.794.44-1.582.891-2.449,1.381M163.462,98.9c-.176-.128-.248-.194-.33-.24q-8.125-4.5-16.258-8.986a.837.837,0,0,0-.681.032c-1.971,1.061-3.929,2.145-5.887,3.23q-6.079,3.37-12.151,6.753a1.416,1.416,0,0,1-1.529-.011q-8.932-4.97-17.875-9.919a.909.909,0,0,0-1.013-.006q-6.25,3.485-12.517,6.937c-1.274.705-2.544,1.416-3.907,2.174.3.177.5.309.716.428q9.247,5.125,18.5,10.247,8.15,4.514,16.3,9.036a1.043,1.043,0,0,0,1.166-.006c2.868-1.612,5.751-3.2,8.629-4.792l23-12.737c1.256-.7,2.511-1.4,3.851-2.14" transform="translate(-77.72 -30.171)"/>
        <path id="Trazado_875302" data-name="Trazado 875302" d="M703.587,7.177q0,3.01,0,6.02c0,.472-.15.912-.61,1.016a1.49,1.49,0,0,1-1.117-.162,1.451,1.451,0,0,1-.367-1.028c-.026-3.35-.016-6.7-.013-10.052,0-.893.008-.889-.9-.886q-4.967.016-9.935.026a3.291,3.291,0,0,1-.524-.024,1.01,1.01,0,0,1-.869-1.07,1.01,1.01,0,0,1,.948-1c.407-.028.818-.01,1.227-.01q5.348,0,10.7,0c1.147,0,1.466.32,1.465,1.445q0,2.864,0,5.727" transform="translate(-608.639 0)"/>
        <path id="Trazado_875303" data-name="Trazado 875303" d="M7.206,703.5q-2.953,0-5.905,0c-.871,0-1.253-.357-1.256-1.233q-.016-5.992,0-11.985a1.031,1.031,0,0,1,1.018-1.12,1.041,1.041,0,0,1,1.083,1.172c.006,3.469.013,6.938-.019,10.406-.005.575.185.671.7.667q5.116-.036,10.231,0a1.546,1.546,0,0,1,1.066.419,1.386,1.386,0,0,1,.124,1.069.88.88,0,0,1-.961.6q-3.04,0-6.08,0Z" transform="translate(-0.033 -608.559)"/>
        <path id="Trazado_875304" data-name="Trazado 875304" d="M7.239.029q3.009,0,6.018,0a.871.871,0,0,1,.957.608,1.434,1.434,0,0,1-.122,1.07,1.425,1.425,0,0,1-1.008.407c-2.843.033-5.687.021-8.531.022-.584,0-1.17.028-1.752-.008-.523-.033-.7.131-.7.682.025,3.233.013,6.466.012,9.7a9.338,9.338,0,0,1-.025.934,1,1,0,0,1-1.016.928,1.023,1.023,0,0,1-1.054-.962C-.012,12.8,0,12.2.005,11.6q0-5.141.014-10.283C.022.355.372.039,1.338.041c1.967.005,3.934,0,5.9,0V.029" transform="translate(0 -0.025)"/>
        <path id="Trazado_875305" data-name="Trazado 875305" d="M696.433,703.468q-2.951,0-5.9,0c-.8,0-1.263-.388-1.264-1.047s.451-1.056,1.254-1.056c3.409,0,6.817-.016,10.226.009.582,0,.765-.148.76-.746-.026-3.428-.012-6.855-.007-10.283a1.08,1.08,0,0,1,.863-1.2,1.05,1.05,0,0,1,1.235,1.123q0,5.434,0,10.868c0,.409.008.818,0,1.226a.987.987,0,0,1-1.085,1.09c-2.025.011-4.051,0-6.076,0Z" transform="translate(-608.654 -608.528)"/>
        <path id="Trazado_875306" data-name="Trazado 875306" d="M116.3,74.574c.794-.444,1.5-.844,2.214-1.238q8.252-4.571,16.5-9.141,8.3-4.6,16.591-9.224a1.361,1.361,0,0,1,1.528,0c4.5,2.526,9.017,5.017,13.529,7.519q10.6,5.876,21.2,11.751c.165.091.322.2.573.352-.6.343-1.117.644-1.639.932q-16.838,9.323-33.672,18.654a1.32,1.32,0,0,1-1.478.029c-3.032-1.718-6.087-3.4-9.135-5.084l-25.6-14.178c-.182-.1-.356-.214-.618-.373m59.9-.014c-.2.127-.288.194-.387.249-1.735.964-3.478,1.914-5.2,2.9a1.579,1.579,0,0,0-.639.761.912.912,0,0,0,.35,1.091,1.139,1.139,0,0,0,1.315.013q3.571-1.984,7.149-3.958a1.108,1.108,0,0,0,0-2.077q-4.932-2.719-9.854-5.455a1.1,1.1,0,0,0-1.624.319,1.079,1.079,0,0,0,.576,1.541c1.153.649,2.312,1.287,3.469,1.929L176.2,74.56" transform="translate(-102.701 -48.335)" fill="#cccaff"/>
        <path id="Trazado_875307" data-name="Trazado 875307" d="M116.809,336.149c.867-.489,1.654-.941,2.449-1.381q6.927-3.833,13.852-7.671a.95.95,0,0,1,1.064-.022q7.659,4.267,15.336,8.5c.835.462,1.68.907,2.5,1.388a1.513,1.513,0,0,0,1.645-.014q8.892-4.941,17.795-9.862a.954.954,0,0,1,1.066-.012q7.94,4.426,15.9,8.822c.113.062.213.148.4.279-.34.2-.615.368-.9.524l-28.745,15.912c-1.977,1.095-3.958,2.184-5.925,3.3a.752.752,0,0,1-.851-.011q-6.82-3.791-13.654-7.559-10.714-5.932-21.424-11.87c-.147-.081-.284-.179-.512-.325" transform="translate(-103.148 -288.686)" fill="#e5e4ff"/>
        <path id="Trazado_875308" data-name="Trazado 875308" d="M188.36,517.464c-1.34.745-2.595,1.444-3.851,2.14l-23,12.737c-2.878,1.594-5.761,3.18-8.629,4.792a1.042,1.042,0,0,1-1.166.005q-8.138-4.535-16.3-9.036-9.249-5.122-18.5-10.247c-.214-.119-.421-.251-.716-.428,1.362-.758,2.633-1.469,3.907-2.174q6.26-3.466,12.517-6.937a.909.909,0,0,1,1.013.006q8.933,4.968,17.875,9.919a1.416,1.416,0,0,0,1.529.011q6.068-3.391,12.152-6.754c1.958-1.085,3.917-2.169,5.887-3.23a.836.836,0,0,1,.681-.032q8.139,4.474,16.258,8.986c.083.046.155.111.33.24m-59.9-.019c.264-.158.438-.267.617-.367.935-.52,1.879-1.024,2.805-1.559a1.06,1.06,0,0,0,.473-1.445,1.093,1.093,0,0,0-1.516-.413c-.088.042-.173.089-.258.136q-2.272,1.259-4.544,2.518c-.455.251-.867.512-.864,1.131s.421.872.875,1.123q5.671,3.133,11.339,6.27c.727.4,1.357.3,1.681-.275s.1-1.172-.625-1.577q-3.008-1.677-6.022-3.344l-3.96-2.2" transform="translate(-102.619 -448.734)" fill="#f2f2ff"/>
        <path id="Trazado_875309" data-name="Trazado 875309" d="M560.237,173.77l-4.841-2.683c-1.157-.642-2.316-1.28-3.469-1.929a1.079,1.079,0,0,1-.576-1.541,1.1,1.1,0,0,1,1.624-.319q4.928,2.726,9.854,5.455a1.108,1.108,0,0,1,0,2.077q-3.581,1.966-7.149,3.958a1.139,1.139,0,0,1-1.315-.013.912.912,0,0,1-.35-1.091,1.579,1.579,0,0,1,.639-.761c1.72-.99,3.463-1.94,5.2-2.9.1-.055.19-.122.387-.249" transform="translate(-486.74 -147.545)"/>
        <path id="Trazado_875310" data-name="Trazado 875310" d="M196.15,557.857l3.96,2.2q3.011,1.671,6.022,3.344c.725.4.953,1,.625,1.577s-.953.677-1.681.275q-5.67-3.135-11.339-6.27c-.454-.251-.872-.5-.875-1.123s.409-.879.864-1.131q2.274-1.256,4.544-2.518c.085-.047.171-.094.258-.136a1.093,1.093,0,0,1,1.516.413,1.06,1.06,0,0,1-.473,1.445c-.926.535-1.87,1.04-2.805,1.559-.179.1-.352.209-.617.367" transform="translate(-170.306 -489.146)"/>
      </g>
    </g>
  </g>
</svg>
