<svg id="img-19" xmlns="http://www.w3.org/2000/svg" xmlns:xlink="http://www.w3.org/1999/xlink" width="94.984" height="90.801" viewBox="0 0 94.984 90.801">
  <defs>
    <clipPath id="clip-path">
      <rect id="Rectángulo_402674" data-name="Rectángulo 402674" width="94.984" height="90.801" fill="none"/>
    </clipPath>
  </defs>
  <g id="Grupo_1102622" data-name="Grupo 1102622" clip-path="url(#clip-path)">
    <path id="Trazado_875401" data-name="Trazado 875401" d="M56.459.6a2.193,2.193,0,0,1,.607-.189c1.843-.013,3.687,0,5.53,0a1.676,1.676,0,0,1,.254.045V31.712c-.237.011-.468.03-.7.03q-8.186,0-16.372,0c-.741,0-.741,0-.742.706,0,.64,0,1.281,0,2H63.766V39.64c.983-.585,1.856-1.1,2.728-1.623,1.912-1.142,3.818-2.292,5.74-3.419a1.53,1.53,0,0,1,.731-.126q9.5-.01,19,0h.717v-.722q0-10.682.007-21.363a4.049,4.049,0,0,1,.164-.8l2.578,2.472a2.678,2.678,0,0,1,.135.589q.012,10.945.01,21.89v.678c-.236.011-.429.027-.622.027q-7.833,0-15.665,0c-1.859,0-3.719-.01-5.578.008a1.7,1.7,0,0,0-.81.221q-5.587,3.315-11.157,6.656c-.259.155-.523.3-.853.491-.013-.217-.03-.363-.03-.508q-.006-3.094-.008-6.187c0-.682,0-.682-.7-.682H42.128v-.59c0-1.456-.013-2.912.009-4.368.006-.4-.095-.548-.542-.544q-2.821.031-5.641,0c-.478-.006-.57.163-.567.574.017,2.1,0,4.194,0,6.291,0,.133,0,.265,0,.491-.963-.54-1.854-1.032-2.738-1.536q-3.915-2.23-7.823-4.473c-.6-.346-1.148-.774-1.747-1.12a1.722,1.722,0,0,0-.818-.206q-6.621-.02-13.243-.011c-2.574,0-5.149-.009-7.723.007-.453,0-.635-.081-.633-.565C.684,25.8.675,20.4.682,15.015a3.3,3.3,0,0,1,.132-.651l2.7-2.593a5.4,5.4,0,0,1,.057.56q0,7.978,0,15.956c0,.721,0,.722.786.722q9.143,0,18.287.006a1.954,1.954,0,0,1,.9.134c2.059,1.143,4.1,2.319,6.143,3.482.9.511,1.8,1.018,2.774,1.568.013-.273.028-.457.029-.641.006-1.351.025-2.7,0-4.054-.007-.4.144-.532.534-.5.127.012.255,0,.383,0q12.921,0,25.843,0c.231,0,.462-.02.691-.03V3.139H59.35c-1.606,0-3.212,0-4.818-.006a2.961,2.961,0,0,1-.544-.1Z" transform="translate(-0.592 -0.362)"/>
    <path id="Trazado_875402" data-name="Trazado 875402" d="M131.714,443.591a6.13,6.13,0,0,1-.647.067c-5.893.005-11.786,0-17.679.017-.515,0-.637-.15-.628-.621.056-3.011.15-6.024.095-9.035a63.786,63.786,0,0,0-.947-10.127,69.11,69.11,0,0,0-1.513-7.213A82.312,82.312,0,0,0,107.332,408c-1.647-3.931-3.518-7.777-5.287-11.663a2.911,2.911,0,0,1-.133-.54l2.07-1.96c.159.282.338.555.473.846,1.5,3.226,3.017,6.444,4.477,9.686A68.554,68.554,0,0,1,113.3,416.3c.7,2.887,1.278,5.809,1.713,8.742a85.746,85.746,0,0,1,.8,15.284c-.005.171,0,.342,0,.569.3.014.564.038.83.038q8.486,0,16.971.006a5.117,5.117,0,0,1,.719.1l-2.616,2.555" transform="translate(-90.747 -352.874)"/>
    <path id="Trazado_875403" data-name="Trazado 875403" d="M474.974,724.383a2.544,2.544,0,0,1,.537-.118q4.571-.011,9.141-.006h.786c-.176-.824-.335-1.564-.491-2.3-.4-1.882-.8-3.762-1.177-5.647-.088-.441-.251-.623-.767-.615-2.023.032-4.047.013-6.18.013l.12-1.23,1.511-1.422a5.1,5.1,0,0,1,.736-.106c5.435-.006,10.871-.019,16.306,0a4.9,4.9,0,0,0,4.761-2.777c.027-.052.091-.086.138-.129l2.058,1.928a14.577,14.577,0,0,1-1.585,1.931,7.446,7.446,0,0,1-5.045,1.8q-4.244.007-8.488,0H486.6l2.367,11.24c-.182.017-.337.044-.491.044q-5.093,0-10.185,0c-.236,0-.471-.037-.707-.057l-2.611-2.549" transform="translate(-422.939 -636.202)"/>
    <path id="Trazado_875404" data-name="Trazado 875404" d="M709.091,484.961l-2.058-1.928c.078-1.343.21-2.686.223-4.03.032-3.466.01-6.932.01-10.4v-.67h8.666c-.223-.854-.419-1.633-.63-2.408-.564-2.075-1.138-4.148-1.7-6.225a2.214,2.214,0,0,1-.011-.543l2.188-2.075a1.867,1.867,0,0,1,.217.39q1.4,5.118,2.782,10.24a2.732,2.732,0,0,1-2.42,3.29c-1.819.1-3.647.053-5.471.069-.215,0-.43,0-.711,0v.658q0,4.989,0,9.979a6.736,6.736,0,0,1-.875,3.442,1.135,1.135,0,0,1-.211.209" transform="translate(-629.575 -409.19)"/>
    <path id="Trazado_875405" data-name="Trazado 875405" d="M113.875.583A3.725,3.725,0,0,1,114.7.392q11.6-.014,23.2,0a2.105,2.105,0,0,1,.5.127L141,3.008a2.342,2.342,0,0,1-.5.108q-14.305.008-28.611,0a2.367,2.367,0,0,1-.488-.1l2.47-2.429" transform="translate(-99.2 -0.345)"/>
    <path id="Trazado_875406" data-name="Trazado 875406" d="M620.485,57.577a2.8,2.8,0,0,1-.523.1q-10.187.007-20.374,0c-.09,0-.18-.011-.324-.02V54.916h.634q9.831,0,19.662,0a4.309,4.309,0,0,1,.585.079l1.5,1.482-1.16,1.1" transform="translate(-533.614 -49.205)"/>
    <path id="Trazado_875407" data-name="Trazado 875407" d="M360.459,2.666l-2.6-2.489A2.371,2.371,0,0,1,358.4.05q7.917-.016,15.835-.008c.1,0,.427-.168.291.2l-2.471,2.43a4.644,4.644,0,0,1-.693.1q-5.107.01-10.215,0a4.436,4.436,0,0,1-.688-.107" transform="translate(-318.659 -0.003)"/>
    <path id="Trazado_875408" data-name="Trazado 875408" d="M14.675.237,12.2,2.666a6.334,6.334,0,0,1-.8.1c-2.59.008-5.18,0-7.77.015a3.49,3.49,0,0,0-.8.2L.3.532,0,.089C.307.065.5.038.685.038q6.823-.005,13.647,0c.115,0,.43-.174.343.2" transform="translate(0 0)"/>
    <path id="Trazado_875409" data-name="Trazado 875409" d="M597.779,246.656c0-.832-.01-1.658.015-2.483,0-.082.212-.226.326-.226,2.57-.01,5.141,0,7.711,0h3.592v2.711Z" transform="translate(-532.289 -218.571)"/>
    <path id="Trazado_875410" data-name="Trazado 875410" d="M609.846,137.131c0,.824,0,1.6,0,2.376,0,.351-.263.315-.5.316q-1.887,0-3.774,0H598.2v-2.694Z" transform="translate(-532.668 -122.87)"/>
    <path id="Trazado_875411" data-name="Trazado 875411" d="M609.488,191.941H597.8c0-.836-.016-1.643.022-2.448,0-.094.31-.246.479-.249,1.258-.022,2.516-.013,3.774-.013,2.243,0,4.486.018,6.729-.012.565-.008.73.155.693.676-.047.654-.011,1.312-.011,2.046" transform="translate(-532.309 -169.541)"/>
    <path id="Trazado_875412" data-name="Trazado 875412" d="M.986,5.116l2.528,2.45a2.593,2.593,0,0,1,.142.588q.015,3.662,0,7.324a4.775,4.775,0,0,1-.054.514L.91,18.585a1.752,1.752,0,0,1-.131-.459Q.767,11.844.78,5.561c0-.149.134-.3.206-.445" transform="translate(-0.688 -4.584)"/>
    <path id="Trazado_875413" data-name="Trazado 875413" d="M385.013,846.839l2.611,2.549c-.285.02-.571.056-.856.056q-6.036.01-12.072.007a7.1,7.1,0,0,1-.75-.077l2.616-2.555a3.38,3.38,0,0,1,.577-.1q3.627-.01,7.255,0a3.336,3.336,0,0,1,.62.118" transform="translate(-332.978 -758.657)"/>
    <path id="Trazado_875414" data-name="Trazado 875414" d="M811.253,62.878l-2.578-2.472a4.734,4.734,0,0,1-.163-.791c-.024-.633-.008-1.268-.008-1.95-.788,0-1.494.008-2.2,0a4.431,4.431,0,0,1-.63-.1l-1.119-1.108,1.46-1.471a.925.925,0,0,1,.256-.079c1.674,0,3.348,0,5.079,0,.017.192.044.356.044.52q0,3.5-.007,7a1.7,1.7,0,0,1-.135.456" transform="translate(-716.414 -49.189)"/>
    <rect id="Rectángulo_402672" data-name="Rectángulo 402672" width="2.828" height="8.164" transform="translate(83.202 14.233)"/>
    <path id="Trazado_875415" data-name="Trazado 875415" d="M87.65,338.873l-2.07,1.96a2.869,2.869,0,0,1-.325-.456,16.817,16.817,0,0,1-1.527-5.586c-.062-.752-.1-1.506-.158-2.3h2.863c.057.66.085,1.313.175,1.957a12.774,12.774,0,0,0,.988,4.017,1.272,1.272,0,0,1,.054.405" transform="translate(-74.416 -297.915)"/>
    <path id="Trazado_875416" data-name="Trazado 875416" d="M747.022,393.035l-2.188,2.075c-.061-.053-.161-.1-.179-.161-.844-3.076-1.681-6.154-2.538-9.3l.346.137,3.4,3.214a12.319,12.319,0,0,1,.524,1.333c.242.894.428,1.8.637,2.7" transform="translate(-660.817 -345.54)"/>
    <rect id="Rectángulo_402673" data-name="Rectángulo 402673" width="2.822" height="2.713" transform="translate(83.199 25.406)"/>
    <path id="Trazado_875417" data-name="Trazado 875417" d="M748.672,388.747l-3.4-3.214a8.139,8.139,0,0,1,.976-.121c.56,0,1.268-.152,1.637.111.344.245.328.945.469,1.446.146.517.3,1.033.426,1.554.016.063-.072.149-.112.224" transform="translate(-663.628 -345.29)"/>
    <path id="Trazado_875418" data-name="Trazado 875418" d="M792.939,55.694l-1.46,1.471-.11.01-1.5-1.482h3.069" transform="translate(-703.337 -49.902)"/>
    <path id="Trazado_875419" data-name="Trazado 875419" d="M794.125,69.851l.11-.01,1.119,1.108h-2.389l1.16-1.1" transform="translate(-706.093 -62.578)"/>
    <path id="Trazado_875420" data-name="Trazado 875420" d="M493.26,737.654l-1.511,1.422L491.6,737.5l1.66.154" transform="translate(-437.744 -660.801)"/>
    <path id="Trazado_875421" data-name="Trazado 875421" d="M84.435,191.027h28.354v2.693c-.21.01-.407.032-.6.028-1.765-.037-3.531-.1-5.3-.11-.983-.006-1.967.1-2.95.106q-9.414.016-18.828.006c-.7,0-.694-.008-.68-.662.015-.672,0-1.344,0-2.06" transform="translate(-75.179 -171.161)"/>
    <path id="Trazado_875422" data-name="Trazado 875422" d="M84.652,82.557l-.074-.6h28.375c0,.83.012,1.623-.014,2.414,0,.108-.191.225-.317.307-.063.041-.178.011-.269.011q-12.515-.006-25.031-.02a2.554,2.554,0,0,1-.652-.18l-2.019-1.93" transform="translate(-75.312 -73.431)"/>
    <path id="Trazado_875423" data-name="Trazado 875423" d="M133.931,135.931a2.367,2.367,0,0,1,.454-.089q11.053-.007,22.107,0c.108,0,.216.014.367.024v2.707c-.188.01-.366.026-.543.026q-9.494,0-18.988,0a4.245,4.245,0,0,1-.684-.111l-2.713-2.551" transform="translate(-119.258 -121.711)"/>
    <path id="Trazado_875424" data-name="Trazado 875424" d="M417.267,97.73a1.376,1.376,0,0,1-.155.488,4.482,4.482,0,0,1-3.054,1.619c-.143.016-.283.045-.491.078,0,.711,0,1.412,0,2.114s0,.714-.723.714c-.583,0-1.167-.005-1.75,0-.265,0-.411-.067-.406-.348.015-.968-.034-1.939.041-2.9a2.572,2.572,0,0,1,2.288-2.31,2.215,2.215,0,0,0,2.2-1.4l2.046,1.943" transform="translate(-365.695 -85.825)"/>
    <path id="Trazado_875425" data-name="Trazado 875425" d="M90.3,135.916l2.713,2.551a1.132,1.132,0,0,1-.332.11q-3.723.009-7.447,0a2.691,2.691,0,0,1-.3-.037v-2.719h1.007c1.241,0,2.482,0,3.723,0a4.714,4.714,0,0,1,.637.089" transform="translate(-75.631 -121.697)"/>
    <path id="Trazado_875426" data-name="Trazado 875426" d="M438.695,64.9l-2.046-1.943a1.953,1.953,0,0,0-1.886-1.724l-.012-.1,2.072-1.986a1.527,1.527,0,0,1,.493.066,4.091,4.091,0,0,1,1.708,5.417c-.063.114-.218.182-.33.271" transform="translate(-387.123 -52.993)"/>
    <path id="Trazado_875427" data-name="Trazado 875427" d="M389.359,58.981l.012.1a2.739,2.739,0,0,1-.69.117,1.732,1.732,0,0,0-2.1,1.782h-2.75a3.947,3.947,0,0,1,2.246-4,5.5,5.5,0,0,1,.893-.231l2.386,2.236" transform="translate(-341.73 -50.844)"/>
    <path id="Trazado_875428" data-name="Trazado 875428" d="M413.593,189.874v2.73H410.72c0-.841-.01-1.665.015-2.488,0-.083.209-.228.324-.231.818-.02,1.636-.011,2.534-.011" transform="translate(-365.723 -170.125)"/>
    <path id="Trazado_875429" data-name="Trazado 875429" d="M415.358,56.7l-2.386-2.236a2.142,2.142,0,0,1,.695-.265c1,0,2,.019,2.991.1.268.021.515.272.772.417L415.358,56.7" transform="translate(-367.73 -48.558)"/>
    <path id="Trazado_875430" data-name="Trazado 875430" d="M84.677,87.751l2.019,1.93c-.085.065-.163.175-.256.188-1.757.238-1.852.159-1.831-1.506a6.009,6.009,0,0,1,.068-.612" transform="translate(-75.337 -78.625)"/>
  </g>
</svg>
