<svg xmlns="http://www.w3.org/2000/svg" xmlns:xlink="http://www.w3.org/1999/xlink" width="166" height="166" viewBox="0 0 166 166">
  <defs>
    <clipPath id="clip-path">
      <rect id="Rectángulo_402650" data-name="Rectángulo 402650" width="119.07" height="119.043" fill="none"/>
    </clipPath>
  </defs>
  <g id="img-13" transform="translate(7859 2372.124)">
    <g id="Grupo_1103070" data-name="Grupo 1103070" transform="translate(-8990 -11747.124)">
      <circle id="Elipse_8445" data-name="Elipse 8445" cx="83" cy="83" r="83" transform="translate(1131 9375)" fill="#fff" opacity="0.45"/>
      <circle id="Elipse_8446" data-name="Elipse 8446" cx="67" cy="67" r="67" transform="translate(1147 9391)" fill="#fff"/>
    </g>
    <g id="Grupo_1103074" data-name="Grupo 1103074" transform="translate(-7835.535 -2348.645)">
      <g id="Grupo_1102600" data-name="Grupo 1102600" clip-path="url(#clip-path)">
        <path id="Trazado_875311" data-name="Trazado 875311" d="M11.825,52.694c-.71.809-1.922,1.3-1.564,2.766.091.374-.44.791-.772.677-1.2-.414-1.635.555-2.257,1.15-.734.7-1.9,1.424-1.973,2.223-.081.844,1.241,1.475,1.929,2.218.472.511.88,1.127,1.8.907a.7.7,0,0,1,.814.781c-.238,1.2.781,1.562,1.362,2.334.425-.546.7-1.306,1.558-1.007a.953.953,0,0,1,.658.865c.075.739-.441,1-1.131,1.245,2.138,2.121,4.2,4.157,6.257,6.208Q29.249,83.8,39.986,94.548c.181.181.364.361.543.545,1.177,1.206,1.333,2.32.455,3.248-.921.973-2.164.867-3.357-.325q-9.842-9.83-19.674-19.67Q9.7,70.1,1.456,61.845c-.5-.5-.971-1.033-1.456-1.551V58.755c.666-.7,1.318-1.414,2-2.1Q29.659,28.993,57.323,1.334C59.1-.438,59.942-.444,61.7,1.312q28.07,28.069,56.138,56.14c1.655,1.656,1.646,2.5-.033,4.18Q90.142,89.295,62.478,116.955c-.713.713-1.459,1.393-2.19,2.089H58.749c-3.48-3.448-6.972-6.884-10.433-10.351a2.063,2.063,0,0,1-.149-2.985,2.117,2.117,0,0,1,3.088.1q3.79,3.737,7.512,7.543c.566.582.871.647,1.491.025q23.188-23.251,46.406-46.471c.205-.206.937-.392.258-.93a.906.906,0,0,1-.082-1.53c.557-.505,1.091-.334,1.531.234a1.823,1.823,0,0,0,.309.248c.527-.7,1.486-1.061,1.415-2.163a.651.651,0,0,1,.577-.615c1.519-.042,1.974-1.481,2.973-2.2.457-.328.279-.611-.049-.922a26.251,26.251,0,0,1-3.3-3.275.714.714,0,0,0-1.063-.215c-.812.407-1.609-.216-1.354-.875.617-1.6-.684-1.876-1.406-2.585l.013.011a.3.3,0,0,0-.292-.319l-.181-.185c-.276-.319-.533-.656-.83-.953Q82.847,28.288,60.516,5.93c-.737-.739-1.1-.906-1.953-.052Q36,28.546,13.36,51.139c-.3.3-.547.636-.819.955a.612.612,0,0,0-.716.6" transform="translate(0 0)" fill="#050505"/>
        <path id="Trazado_875312" data-name="Trazado 875312" d="M164.152,131.73c1.592.372,2.047.928,2.052,2.568.008,2.735-.028,5.471.016,8.206a2.624,2.624,0,0,1-1.414,2.511q-14.5,8.646-28.983,17.331a2.607,2.607,0,0,1-2.978-.059q-14.366-8.628-28.763-17.2a2.824,2.824,0,0,1-1.522-2.707c.032-9.488.018-18.975.018-28.463V112.4c-.666.233-1.279.3-1.66-.4a.878.878,0,0,1,.052-.965c.4-.619.969-.524,1.624-.292-.231-1.586.584-2.417,1.795-3.137q14.3-8.495,28.544-17.068a2.5,2.5,0,0,1,2.859-.037q14.475,8.693,28.992,17.317c1.208.714,1.3,2.092,2.235,2.925a.593.593,0,0,1-.1.823c-1.006.584-.7,1.524-.712,2.366-.023,1.624,0,3.248-.008,4.872-.005,1.747-.344,2.2-2.051,2.747-1.7-.552-2.046-1.013-2.052-2.755-.005-1.5-.029-2.993.01-4.488.021-.824-.244-.855-.868-.479-1.164.7-2.353,1.365-3.532,2.044q-10.359,5.735-20.723,11.457a.988.988,0,0,0-.546,1.028q.03,12.632.042,25.265v3.24c.375.176.567-.06.769-.181Q149.325,149.5,161.4,142.3a1.336,1.336,0,0,0,.716-1.343c-.034-2.217-.021-4.435-.011-6.652.007-1.628.459-2.182,2.049-2.575m-56.46-18.946c-.8.041-1.029.448-1.026,1.252q.044,13.464,0,26.929a1.327,1.327,0,0,0,.752,1.322c1.814,1.043,3.6,2.138,5.4,3.206q7.706,4.575,15.416,9.144c1.082.674,2.168,1.341,3.243,2.026.6.383.871.354.87-.474q-.025-13.89,0-27.781a1.084,1.084,0,0,0-.617-1.13c-1.177-.6-2.332-1.235-3.5-1.856-3.166-1.79-6.321-3.6-9.505-5.357a2.93,2.93,0,0,1-1.707-2.057l.311-1.048c1.223-1.24,1.834-1.333,3.378-.485q5.386,2.955,10.767,5.919c.735.427,1.5.813,2.195,1.3a1.232,1.232,0,0,0,1.506-.013q12.014-6.725,24.049-13.414c.2-.114.494-.168.532-.614l-2.8-1.636q-10.927-6.563-21.845-13.14a1.357,1.357,0,0,0-1.623.131q-11.259,6.758-22.538,13.482c-1.263.754-2.765,1.306-2.456,3.244a.831.831,0,0,1-.042.252l-.766.8" transform="translate(-74.872 -66.911)" fill="#020202"/>
        <path id="Trazado_875313" data-name="Trazado 875313" d="M260.759,183.83c1.178-.679,2.368-1.341,3.532-2.044.624-.377.89-.346.868.479-.039,1.495-.015,2.992-.01,4.488.006,1.742.353,2.2,2.052,2.755q0,2,0,4.01a2.025,2.025,0,0,0-2.033,2.015c-.043,1.336.861,1.914,2.031,2.187q0,.978,0,1.957c-1.591.393-2.042.947-2.049,2.575-.01,2.217-.024,4.435.011,6.652a1.336,1.336,0,0,1-.716,1.343q-12.082,7.183-24.148,14.394c-.2.12-.394.356-.769.18v-3.24a7.568,7.568,0,0,0,1.056-.436q9.823-5.863,19.638-11.74a1.691,1.691,0,0,0,.835-1.69c-.027-7.522-.014-15.044-.023-22.566,0-.449.162-.954-.279-1.319" transform="translate(-177.923 -134.858)" fill="#f2f2ff"/>
        <path id="Trazado_875314" data-name="Trazado 875314" d="M166.617,388a2.117,2.117,0,0,1-1.979,2.1,2.048,2.048,0,0,1-2.115-1.943,2.017,2.017,0,0,1,2.017-2.152,2.065,2.065,0,0,1,2.077,1.99" transform="translate(-120.719 -286.728)" fill="#090909"/>
        <path id="Trazado_875315" data-name="Trazado 875315" d="M341.237,232.27c-1.171-.273-2.075-.851-2.031-2.187a2.031,2.031,0,0,1,4.062,0c.043,1.336-.863,1.911-2.03,2.185" transform="translate(-251.959 -169.408)" fill="#060503"/>
        <path id="Trazado_875316" data-name="Trazado 875316" d="M407.259,200.458l.181.185c.025.172-.078.462.292.319l-.013-.011c-.316.082-.143.33-.167.507a.972.972,0,0,1-1.1.966,1.008,1.008,0,0,1,.185-2.008c.207.007.414.027.621.041" transform="translate(-301.243 -148.868)" fill="#0e0e0e"/>
        <path id="Trazado_875317" data-name="Trazado 875317" d="M60.648,194.248c.724.022,1.121.394,1.123,1.024a.954.954,0,0,1-.975.989,1.01,1.01,0,0,1-.149-2.013" transform="translate(-44.383 -144.287)" fill="#121212"/>
        <path id="Trazado_875318" data-name="Trazado 875318" d="M379.1,183.892c.663.134,1.089.457,1.027,1.124a1.012,1.012,0,0,1-2.016-.053c-.032-.673.446-.946.989-1.07" transform="translate(-280.859 -136.594)" fill="#0e0e0e"/>
        <path id="Trazado_875319" data-name="Trazado 875319" d="M45.974,203.1a.612.612,0,0,1,.716-.6c.8-.083,1.344.2,1.335,1.073a.9.9,0,0,1-.976.94c-.85-.035-1.084-.659-1.076-1.412" transform="translate(-34.149 -150.403)" fill="#121212"/>
        <path id="Trazado_875320" data-name="Trazado 875320" d="M87.427,277.1c-.087.714-.463,1.083-1.017,1.073a.95.95,0,0,1-.992-1.081.923.923,0,0,1,1.12-.922.961.961,0,0,1,.888.93" transform="translate(-63.446 -205.132)" fill="#0e0e0e"/>
        <path id="Trazado_875321" data-name="Trazado 875321" d="M392.862,192.214a.966.966,0,0,1,1.028.946.95.95,0,0,1-1.024,1.051,1,1,0,0,1,0-2" transform="translate(-291.086 -142.776)" fill="#0e0e0e"/>
        <path id="Trazado_875322" data-name="Trazado 875322" d="M58.9,261.744a.964.964,0,0,1-.94-1,1.009,1.009,0,1,1,2.012.11.97.97,0,0,1-1.072.887" transform="translate(-43.056 -192.928)" fill="#0e0e0e"/>
        <path id="Trazado_875323" data-name="Trazado 875323" d="M73.741,269.02c-.12.624-.475,1.041-1.115,1a1,1,0,0,1,.138-1.989c.6.025.872.442.977.988" transform="translate(-53.256 -199.092)" fill="#0e0e0e"/>
        <path id="Trazado_875324" data-name="Trazado 875324" d="M74.48,185.927c.632.111,1.031.457.984,1.111a.91.91,0,0,1-1.014.909.92.92,0,0,1-.968-1.075c.032-.608.451-.864,1-.946" transform="translate(-54.581 -138.106)" fill="#0e0e0e"/>
        <path id="Trazado_875325" data-name="Trazado 875325" d="M89.119,178.852a1.007,1.007,0,0,1-2.014,0,1.007,1.007,0,1,1,2.014,0" transform="translate(-64.701 -132.077)" fill="#0e0e0e"/>
        <path id="Trazado_875326" data-name="Trazado 875326" d="M366.448,176.762a.949.949,0,0,1-.9,1.018.938.938,0,0,1-1.11-.954.96.96,0,0,1,1.028-1.055.972.972,0,0,1,.983.992" transform="translate(-270.701 -130.561)" fill="#0e0e0e"/>
        <path id="Trazado_875327" data-name="Trazado 875327" d="M401.371,257.579c.538.113.967.359.987.979a1,1,0,0,1-2.006.129c-.038-.633.39-.995,1.019-1.108" transform="translate(-297.378 -191.329)" fill="#121212"/>
        <path id="Trazado_875328" data-name="Trazado 875328" d="M375.092,275.076c-.092.7-.453,1.118-1.083,1.1a1,1,0,1,1,.069-2c.623,0,.86.44,1.014.9" transform="translate(-277.094 -203.657)" fill="#0e0e0e"/>
        <path id="Trazado_875329" data-name="Trazado 875329" d="M388.776,266.9c-.063.546-.308.968-.912,1.018a.912.912,0,0,1-1.1-.931.9.9,0,0,1,.874-1.035c.658-.068,1.006.318,1.135.948" transform="translate(-287.287 -197.546)" fill="#090909"/>
        <path id="Trazado_875330" data-name="Trazado 875330" d="M101.05,285.329a.969.969,0,0,1-.952,1.012,1.01,1.01,0,1,1,.009-2.017.962.962,0,0,1,.942,1" transform="translate(-73.561 -211.193)" fill="#0e0e0e"/>
        <path id="Trazado_875331" data-name="Trazado 875331" d="M361.315,283.146c-.034.741-.391,1.116-.948,1.155a.955.955,0,0,1-1.081-1,.944.944,0,0,1,1.062-1.013,1,1,0,0,1,.967.861" transform="translate(-266.876 -209.68)" fill="#0e0e0e"/>
        <path id="Trazado_875332" data-name="Trazado 875332" d="M413.181,201.619c-.37.142-.267-.147-.292-.32a.3.3,0,0,1,.292.32" transform="translate(-306.692 -149.524)" fill="#fdfdfd"/>
        <path id="Trazado_875333" data-name="Trazado 875333" d="M153.6,135.6q-5.383-2.96-10.767-5.919c-1.544-.847-2.155-.754-3.378.486l-1.667-1.053a2.1,2.1,0,0,0-3.68-2l-3.525-1.925a.818.818,0,0,0,.042-.252c-.309-1.938,1.193-2.49,2.457-3.244q11.276-6.73,22.537-13.482a1.357,1.357,0,0,1,1.623-.131q10.907,6.6,21.845,13.14c-.041.526-.52.669-.858.865-1.62.941-3.272,1.826-4.908,2.739-4.351,2.426-8.673,4.908-13.062,7.264A55.022,55.022,0,0,1,153.6,135.6" transform="translate(-96.993 -80.121)" fill="#cccaff"/>
        <path id="Trazado_875334" data-name="Trazado 875334" d="M133.967,183.575a2.93,2.93,0,0,0,1.707,2.057c3.185,1.756,6.339,3.567,9.505,5.357q0,14.607,0,29.215-7.708-4.572-15.416-9.144c-1.8-1.068-3.583-2.163-5.4-3.206a1.327,1.327,0,0,1-.752-1.322q.032-13.464,0-26.929c0-.8.223-1.21,1.026-1.252a25.39,25.39,0,0,0,4.029,2.375c.606,1.8,1.5,2.185,3.415,1.485.325.873,1.1,1.13,1.884,1.363" transform="translate(-91.82 -132.478)" fill="#e5e4ff"/>
        <path id="Trazado_875335" data-name="Trazado 875335" d="M260.636,190.4c.44.365.278.87.279,1.319.009,7.522,0,15.044.023,22.566a1.691,1.691,0,0,1-.835,1.69q-9.826,5.858-19.638,11.74a7.567,7.567,0,0,1-1.056.436q-.018-12.632-.042-25.265a.988.988,0,0,1,.546-1.027q10.373-5.71,20.723-11.458" transform="translate(-177.801 -141.43)" fill="#f2f2ff"/>
        <path id="Trazado_875336" data-name="Trazado 875336" d="M207.463,256.7q0-14.607,0-29.215c1.164.621,2.32,1.259,3.5,1.856a1.085,1.085,0,0,1,.617,1.13q-.018,13.89,0,27.781c0,.828-.269.857-.87.474-1.075-.684-2.162-1.351-3.243-2.026" transform="translate(-154.101 -168.975)" fill="#e5e4ff"/>
        <path id="Trazado_875337" data-name="Trazado 875337" d="M220.072,174.177a55.023,55.023,0,0,0,6.657-3.513c4.389-2.356,8.71-4.838,13.062-7.264,1.636-.913,3.288-1.8,4.908-2.739.338-.2.817-.339.858-.865l2.8,1.636c-.038.446-.327.5-.532.614q-12.025,6.706-24.049,13.414a1.232,1.232,0,0,1-1.506.013c-.7-.484-1.46-.869-2.195-1.3" transform="translate(-163.468 -118.696)" fill="#cccaff"/>
        <path id="Trazado_875338" data-name="Trazado 875338" d="M131.632,178.4a25.388,25.388,0,0,1-4.029-2.375l.765-.8,3.524,1.925q-.131.627-.261,1.254" transform="translate(-94.783 -130.156)" fill="#e5e4ff"/>
        <path id="Trazado_875339" data-name="Trazado 875339" d="M158.429,192.592c-.788-.234-1.558-.49-1.883-1.363l.526-.738,1.667,1.053q-.155.524-.31,1.048" transform="translate(-116.282 -141.496)" fill="#e5e4ff"/>
        <path id="Trazado_875340" data-name="Trazado 875340" d="M147.209,181.822l-.526.738c-1.916.7-2.809.311-3.415-1.485q.13-.627.261-1.254a2.1,2.1,0,0,1,3.681,2" transform="translate(-106.418 -132.827)" fill="#020205"/>
      </g>
    </g>
  </g>
</svg>
