<svg xmlns="http://www.w3.org/2000/svg" xmlns:xlink="http://www.w3.org/1999/xlink" width="93" height="94" viewBox="0 0 93 94">
  <defs>
    <clipPath id="clip-path">
      <rect id="Rectángulo_56651" data-name="Rectángulo 56651" width="53.2" height="54.231"/>
    </clipPath>
  </defs>
  <g id="img-5" transform="translate(0.275 -0.334)">
    <ellipse id="Elipse_4870" data-name="Elipse 4870" cx="46.5" cy="47" rx="46.5" ry="47" transform="translate(-0.275 0.334)" fill="#7f7aff"/>
    <g id="Grupo_1102561" data-name="Grupo 1102561" transform="translate(14.153 17.833)">
      <g id="Grupo_176137" data-name="Grupo 176137" clip-path="url(#clip-path)">
        <path id="Trazado_218549" data-name="Trazado 218549" d="M53.2,52.112a2.726,2.726,0,0,1-2.058,2.051,3.613,3.613,0,0,1-.735.064q-17.264,0-34.528,0a2.611,2.611,0,0,1-2.818-2.849q0-4.872,0-9.745v-.682c-.2.187-.344.3-.472.432-1.337,1.334-2.656,2.687-4.011,4a4.977,4.977,0,0,1-8.14-1.537,4.682,4.682,0,0,1,.922-5.312C3.786,36,6.3,33.549,8.793,31.071c.547-.544,1.032-.489,1.8.16.741-.741,1.491-1.48,2.221-2.239a.47.47,0,0,0,.022-.41,10.894,10.894,0,0,1,.121-9.226,1.649,1.649,0,0,0,.1-.666q.009-5.614,0-11.227a2.629,2.629,0,0,1,2.9-2.882l8.473-.007h.59c.022-.407.022-.758.065-1.1A3.83,3.83,0,0,1,28.071.1a1.779,1.779,0,0,0,.239-.1h9.638a1.062,1.062,0,0,0,.186.088,3.865,3.865,0,0,1,3.074,3.8c.006.22,0,.44,0,.69h.716q4.258,0,8.515.008A2.586,2.586,0,0,1,53,6.2c.07.157.136.317.2.476V36.33c-.085.106-.165.217-.256.318a1,1,0,0,1-1.094.336,1.008,1.008,0,0,1-.761-.915,4.918,4.918,0,0,1-.01-.582q0-13.925,0-27.85c0-.863-.074-.938-.927-.938H46.644c0,.444.005.843,0,1.242a3.148,3.148,0,0,1-3.2,3.181q-10.324.011-20.649,0a3.148,3.148,0,0,1-3.18-3.145c-.007-.4,0-.8,0-1.277-1.049,0-2.05.008-3.05,0-1.486-.014-1.392-.024-1.389,1.379.006,2.524,0,5.048,0,7.571v.6c.195-.155.313-.247.429-.341,3.366-2.724,7.114-3.495,11.137-1.827a10.4,10.4,0,0,1,6.763,9.162A10.735,10.735,0,0,1,21.626,34.854a27.323,27.323,0,0,1-3.219-.784.7.7,0,0,0-.54.043c-.747.7-1.464,1.428-2.2,2.161.073.1.118.171.173.236a1.042,1.042,0,0,1-.059,1.664,1.809,1.809,0,0,0-.613,1.52c.03,3.865.014,7.73.015,11.6,0,.729.093.822.822.822H50.257c.728,0,.822-.094.822-.823q0-2.833,0-5.665c0-.787.242-1.208.766-1.345.561-.147.954.067,1.354.737ZM22.639,32.786a8.665,8.665,0,0,0,8.81-8.665,8.719,8.719,0,0,0-17.438-.111,8.628,8.628,0,0,0,8.628,8.775M44.521,6.692h-.578c-1.217,0-2.435,0-3.652,0-.82,0-1.186-.376-1.2-1.2-.007-.494,0-.988,0-1.482A1.755,1.755,0,0,0,37.2,2.12q-4.075-.007-8.151,0a1.752,1.752,0,0,0-1.886,1.886c-.008.494,0,.988,0,1.482-.012.826-.379,1.2-1.2,1.2-1.217.007-2.435,0-3.652,0h-.583c0,.334,0,.58,0,.826,0,1.207.283,1.489,1.5,1.489H43.025c.159,0,.318.006.476,0A1.014,1.014,0,0,0,44.517,8c.019-.4,0-.809,0-1.3M9.55,33.294,3.308,39.547c-.174.175-.355.345-.513.534A2.87,2.87,0,0,0,7.141,43.83q3.117-3.094,6.213-6.211c.094-.094.172-.2.242-.288L9.55,33.294m6.425-.417-1.887-1.964-1.843,1.829,1.933,1.936,1.8-1.8" transform="translate(0)"/>
        <path id="Trazado_218550" data-name="Trazado 218550" d="M483.465,374.531c-.294.4-.6.782-1.176.709a1.083,1.083,0,0,1-.934-.931,1.07,1.07,0,0,1,.655-1.092,1.053,1.053,0,0,1,1.256.377c.071.1.133.2.2.3Z" transform="translate(-430.265 -333.54)"/>
        <path id="Trazado_218551" data-name="Trazado 218551" d="M185.921,358.248a5.751,5.751,0,0,1,5.431-6.02c.785-.017,1.256.36,1.271,1.014s-.421,1.05-1.214,1.1a3.537,3.537,0,1,0,3.226,5.316c.089-.152.158-.315.243-.469a1.054,1.054,0,1,1,1.9.905,5.289,5.289,0,0,1-1.933,2.4,5.454,5.454,0,0,1-5.858.4,5.391,5.391,0,0,1-3.07-4.641" transform="translate(-166.19 -314.847)"/>
        <path id="Trazado_218552" data-name="Trazado 218552" d="M331.412,370.818q2.325,0,4.651,0a1.026,1.026,0,0,1,1.079.76.92.92,0,0,1-.38,1.114,1.815,1.815,0,0,1-.895.231c-1.162.026-2.325.011-3.488.011H327.2a5.049,5.049,0,0,1-.528-.015,1.048,1.048,0,0,1-1.019-1.068,1.02,1.02,0,0,1,1.056-1.024c1.092-.024,2.184-.01,3.276-.011h1.427Z" transform="translate(-291.092 -331.46)"/>
        <path id="Trazado_218553" data-name="Trazado 218553" d="M337.913,190.586c1.394,0,2.787,0,4.181,0,.781,0,1.259.4,1.27,1.038s-.489,1.077-1.288,1.078q-4.128,0-8.255,0c-.785,0-1.252-.394-1.261-1.043-.009-.68.451-1.071,1.279-1.073,1.358,0,2.716,0,4.075,0" transform="translate(-297.265 -170.359)"/>
        <path id="Trazado_218554" data-name="Trazado 218554" d="M221.939,369.094c1.03-1.032,1.949-1.953,2.869-2.873.719-.719,1.321-.816,1.821-.3.483.5.381,1.092-.311,1.785q-1.684,1.685-3.37,3.368a1.132,1.132,0,0,1-1.863-.007c-.4-.4-.806-.792-1.2-1.2a1.071,1.071,0,0,1-.055-1.556,1.043,1.043,0,0,1,1.551.076,7.078,7.078,0,0,1,.554.7" transform="translate(-196.228 -326.797)"/>
        <path id="Trazado_218555" data-name="Trazado 218555" d="M329.776,418.13c.97,0,1.94-.006,2.91,0a1.066,1.066,0,1,1,.008,2.114q-2.936.009-5.873,0a1.062,1.062,0,1,1-.008-2.113c.988-.009,1.975,0,2.963,0" transform="translate(-291.088 -373.753)"/>
        <path id="Trazado_218556" data-name="Trazado 218556" d="M336.325,239.949c-.863,0-1.725.009-2.588,0-.742-.01-1.186-.42-1.182-1.058a1.064,1.064,0,0,1,1.2-1.053q2.562-.017,5.123,0a1.064,1.064,0,1,1-.015,2.11c-.845.011-1.69,0-2.535,0" transform="translate(-297.262 -212.587)"/>
        <path id="Trazado_218557" data-name="Trazado 218557" d="M169.487,199.589c1.621-1.624,3.173-3.187,4.737-4.739a1.056,1.056,0,0,1,1.769.207.976.976,0,0,1-.18,1.175q-2.773,2.8-5.571,5.572a1.007,1.007,0,0,1-1.512-.028q-1.345-1.309-2.655-2.655a1.053,1.053,0,1,1,1.484-1.491c.645.625,1.261,1.278,1.929,1.959" transform="translate(-148.144 -173.829)"/>
        <path id="Trazado_218558" data-name="Trazado 218558" d="M287.107,42.454c.616,0,1.232-.013,1.847,0a1.062,1.062,0,0,1,1.138,1.059,1.049,1.049,0,0,1-1.1,1.043q-1.9.034-3.8,0a1.041,1.041,0,0,1-1.085-1.058,1.067,1.067,0,0,1,1.1-1.044c.035,0,.07,0,.105,0h1.794" transform="translate(-253.955 -37.945)"/>
      </g>
    </g>
  </g>
</svg>
